<svg width="234" height="71" viewBox="0 0 234 71" fill="none" xmlns="http://www.w3.org/2000/svg">
<path d="M69.1541 31.8849C68.5034 31.123 68.0591 30.207 67.8636 29.2243C67.6681 28.2417 67.7279 27.2253 68.0375 26.2724C68.4681 24.9461 68.4115 23.5097 67.8779 22.2214C67.3442 20.9331 66.3686 19.8774 65.1263 19.244C64.2342 18.7893 63.4735 18.1134 62.917 17.2809C62.3604 16.4485 62.0264 15.4873 61.9471 14.4891C61.8372 13.099 61.2351 11.7936 60.249 10.8077C59.2629 9.82172 57.9575 9.21983 56.5674 9.11021C55.5692 9.03075 54.608 8.69681 53.7756 8.14023C52.9431 7.58365 52.2673 6.82302 51.8124 5.93094C51.1793 4.68841 50.1236 3.71255 48.8352 3.1789C47.5468 2.64524 46.1103 2.58881 44.7841 3.01975C43.831 3.32906 42.8145 3.38882 41.8318 3.19333C40.849 2.99785 39.9328 2.55363 39.1707 1.90314C38.1103 0.997537 36.7616 0.5 35.3672 0.5C33.9727 0.5 32.624 0.997537 31.5636 1.90314C30.8014 2.55357 29.8852 2.99774 28.9025 3.19322C27.9198 3.3887 26.9033 3.32898 25.9503 3.01975C24.624 2.58881 23.1875 2.64524 21.8991 3.1789C20.6107 3.71255 19.555 4.68841 18.9219 5.93094C18.4671 6.82302 17.7912 7.58365 16.9587 8.14023C16.1263 8.69681 15.1652 9.03075 14.167 9.11021C12.7769 9.21986 11.4716 9.82177 10.4856 10.8077C9.49965 11.7937 8.89772 13.099 8.78807 14.4891C8.70869 15.4873 8.37477 16.4485 7.81818 17.2809C7.2616 18.1134 6.50094 18.7893 5.6088 19.244C4.36479 19.8756 3.38705 20.9305 2.85156 22.2188C2.31607 23.5071 2.25799 24.9443 2.68778 26.2716C2.99734 27.2245 3.05721 28.2408 2.86172 29.2235C2.66622 30.2062 2.22189 31.1222 1.57118 31.8841C0.66552 32.9446 0.167969 34.2934 0.167969 35.6881C0.167969 37.0827 0.66552 38.4315 1.57118 39.492C2.22203 40.254 2.66647 41.1702 2.86197 42.153C3.05747 43.1358 2.99749 44.1524 2.68778 45.1054C2.25703 46.4319 2.31362 47.8685 2.8474 49.157C3.38119 50.4455 4.35717 51.5013 5.5998 52.1345C6.49193 52.5893 7.25259 53.2652 7.80918 54.0976C8.36576 54.9301 8.69968 55.8913 8.77906 56.8895C8.88871 58.2795 9.49064 59.5849 10.4766 60.5708C11.4626 61.5568 12.7679 62.1587 14.1579 62.2684C15.1562 62.3477 16.1173 62.6817 16.9498 63.2382C17.7822 63.7948 18.4581 64.5555 18.9129 65.4476C19.546 66.6902 20.6017 67.666 21.8901 68.1997C23.1785 68.7333 24.615 68.7898 25.9413 68.3588C26.8943 68.0494 27.9107 67.9896 28.8935 68.1851C29.8763 68.3806 30.7925 68.8249 31.5546 69.4754C32.615 70.381 33.9637 70.8786 35.3582 70.8786C36.7526 70.8786 38.1013 70.381 39.1617 69.4754C39.9238 68.8248 40.84 68.3805 41.8227 68.185C42.8055 67.9895 43.822 68.0494 44.775 68.3588C46.1013 68.7898 47.5378 68.7333 48.8262 68.1997C50.1146 67.666 51.1702 66.6902 51.8034 65.4476C52.2581 64.5555 52.9339 63.7947 53.7664 63.2381C54.5988 62.6815 55.5601 62.3477 56.5584 62.2684C57.9485 62.1587 59.2539 61.5568 60.24 60.5709C61.2261 59.585 61.8282 58.2796 61.938 56.8895C62.0174 55.8913 62.3513 54.9301 62.9079 54.0976C63.4645 53.2652 64.2252 52.5893 65.1173 52.1345C66.3598 51.5011 67.3356 50.4453 67.8692 49.1568C68.4028 47.8683 68.4593 46.4318 68.0285 45.1054C67.7189 44.1525 67.6591 43.1361 67.8546 42.1534C68.05 41.1708 68.4944 40.2547 69.1451 39.4929C70.0517 38.4333 70.5507 37.085 70.5523 35.6905C70.554 34.296 70.0582 32.9466 69.1541 31.8849ZM35.3627 65.3665C29.493 65.3665 23.7551 63.6259 18.8747 60.3649C13.9942 57.1039 10.1904 52.4689 7.94413 47.046C5.6979 41.6231 5.11018 35.656 6.25529 29.8991C7.40041 24.1422 10.2269 18.8541 14.3774 14.7036C18.5279 10.5532 23.8159 7.72664 29.5728 6.58152C35.3297 5.43641 41.2969 6.02413 46.7198 8.27036C52.1427 10.5166 56.7776 14.3204 60.0387 19.2009C63.2997 24.0813 65.0403 29.8192 65.0403 35.6889C65.0314 43.557 61.9019 51.1003 56.3384 56.664C50.7748 62.2277 43.2316 65.3574 35.3635 65.3665H35.3627Z" fill="#00C0C9"/>
<path d="M59.9536 22.2979L42.9013 49.0241C42.5245 49.6928 42.0121 50.2753 41.3969 50.7343C40.7343 51.1632 39.9538 51.3734 39.1654 51.3352H36.0369C35.3114 51.3997 34.5885 51.1848 34.0161 50.7343C33.5545 50.2649 33.2409 49.6702 33.1143 49.0241L31.9083 43.3526L31.8132 42.9066C31.7475 42.599 31.8027 42.2778 31.9673 42.0097L36.537 34.5756C36.5804 34.5051 36.6438 34.4493 36.7192 34.4152C36.7945 34.3812 36.8784 34.3704 36.9599 34.3845C37.0414 34.3985 37.1168 34.4366 37.1765 34.4939C37.2361 34.5512 37.2773 34.6251 37.2945 34.7059L38.9243 42.3049L52.5596 18.53C52.8479 18.0674 53.2169 17.6603 53.6492 17.3282C54.109 16.9602 54.6827 16.7639 55.2716 16.7731H56.0554C51.2986 11.5295 44.7204 8.29831 37.6629 7.73884C30.6053 7.17938 23.6002 9.33379 18.0767 13.7625C12.5532 18.1912 8.92762 24.5606 7.9396 31.571C6.95158 38.5814 8.6756 45.7047 12.7599 51.4875C16.8442 57.2703 22.981 61.2769 29.9183 62.6898C36.8556 64.1027 44.0706 62.8155 50.0913 59.0908C56.112 55.366 60.4847 49.4845 62.3173 42.646C64.1498 35.8076 63.3042 28.5276 59.9528 22.2914L59.9536 22.2979ZM24.011 50.7368C23.3483 51.1657 22.5678 51.3759 21.7794 51.3377H18.651C17.9254 51.4021 17.2026 51.1872 16.6301 50.7368C16.1685 50.2673 15.8549 49.6727 15.7283 49.0266L12.3809 33.1221L12.3432 32.2899C12.4464 31.7255 12.749 31.2168 13.1958 30.8569C13.6183 30.4755 14.1656 30.2618 14.7347 30.256H16.9654C17.4757 30.2129 17.9822 30.3735 18.3745 30.7027C18.7668 31.0318 19.013 31.5028 19.0592 32.0128L21.3957 43.0329L29.7579 25.3428C30.0463 24.8802 30.4153 24.4731 30.8475 24.1409C31.3076 23.7729 31.8816 23.5766 32.4707 23.5859H37.5003C37.7386 23.5837 37.9741 23.6369 38.1883 23.7412C38.4025 23.8454 38.5897 23.998 38.735 24.1868C38.8972 24.384 39.0128 24.6153 39.073 24.8635C39.1332 25.1117 39.1365 25.3702 39.0826 25.6199C39.0411 25.9068 38.9609 26.1867 38.844 26.452L25.5153 49.0266C25.1387 49.6954 24.6262 50.2779 24.011 50.7368Z" fill="#00C0C9"/>
<path d="M87.3609 40.362C87.1429 40.1528 86.9793 39.8935 86.8845 39.6067L81.2837 21.1743L81.2056 20.7369C81.2105 20.5278 81.2957 20.3286 81.4436 20.1807C81.5915 20.0328 81.7907 19.9475 81.9999 19.9426H82.7543C82.9703 19.9349 83.1819 20.0053 83.3503 20.141C83.4855 20.2381 83.5838 20.3783 83.629 20.5385L88.5144 37.0637L93.7185 20.74C93.776 20.5215 93.9012 20.3268 94.0762 20.1839C94.2777 20.0208 94.5319 19.9374 94.7908 19.9496H95.5852C95.8443 19.9375 96.0988 20.0209 96.3005 20.1839C96.4751 20.3271 96.6 20.5217 96.6575 20.74L101.862 37.0637L106.747 20.5385C106.792 20.3783 106.891 20.2382 107.026 20.141C107.194 20.0055 107.406 19.9351 107.622 19.9426H108.375C108.585 19.9475 108.784 20.0328 108.932 20.1807C109.08 20.3286 109.165 20.5277 109.17 20.7369L109.092 21.1743L103.492 39.6067C103.396 39.8934 103.233 40.1526 103.015 40.362C102.787 40.5328 102.505 40.6159 102.221 40.5963H101.546C101.238 40.6243 100.931 40.5388 100.682 40.3558C100.433 40.1727 100.26 39.9049 100.195 39.6028L95.1908 23.9524L90.1858 39.6028C90.1209 39.9047 89.9477 40.1725 89.6989 40.3555C89.4502 40.5385 89.143 40.6241 88.8354 40.5963H88.1606C87.8745 40.6174 87.5904 40.5341 87.3609 40.362Z" fill="#ffffff"/>
<path d="M112.705 38.5145C111.089 36.6654 110.163 34.3143 110.084 31.8601L110.043 30.2715L110.084 28.6828C110.17 26.2398 111.088 23.8994 112.685 22.0487C113.46 21.2154 114.406 20.5603 115.459 20.1287C116.512 19.6972 117.646 19.4995 118.783 19.5494C119.996 19.4865 121.208 19.7006 122.326 20.1754C123.445 20.6503 124.44 21.3734 125.238 22.2901C126.787 24.1172 127.562 26.6199 127.562 29.7982V30.3941C127.567 30.5123 127.546 30.6303 127.502 30.74C127.457 30.8497 127.39 30.9485 127.304 31.0298C127.124 31.1898 126.889 31.2737 126.648 31.2642H112.506V31.6617C112.549 32.8667 112.84 34.0498 113.361 35.1373C113.845 36.172 114.591 37.0623 115.525 37.7202C116.482 38.3779 117.622 38.7181 118.783 38.6926C120.024 38.7466 121.256 38.4508 122.337 37.8389C123.103 37.4025 123.772 36.8147 124.304 36.1113C124.453 35.8883 124.634 35.6876 124.84 35.5153C125.044 35.4181 125.27 35.3769 125.495 35.3958H126.131C126.347 35.3884 126.558 35.4588 126.727 35.5942C126.803 35.6563 126.865 35.7353 126.906 35.8249C126.947 35.9146 126.968 36.0126 126.965 36.1113C126.861 36.883 126.488 37.5934 125.912 38.1177C125.087 38.9851 124.094 39.6746 122.992 40.1437C121.667 40.7294 120.231 41.0206 118.782 40.9974C117.65 41.0433 116.522 40.8453 115.473 40.4169C114.425 39.9885 113.481 39.3397 112.705 38.5145ZM125.138 29.0398V28.8836C125.208 27.0459 124.592 25.2477 123.41 23.8389C122.837 23.1827 122.123 22.6635 121.322 22.3197C120.521 21.9758 119.654 21.816 118.783 21.8519C117.917 21.8131 117.054 21.9718 116.259 22.3161C115.464 22.6603 114.758 23.1811 114.194 23.8389C113.035 25.2583 112.435 27.0524 112.506 28.8836V29.0398H125.138Z" fill="#ffffff"/>
<path d="M136.22 40.3414C135.99 40.1432 135.812 39.8905 135.705 39.6065L128.275 21.174L128.197 20.8163C128.2 20.5854 128.292 20.3646 128.455 20.2014C128.619 20.0381 128.84 19.9454 129.07 19.9431H132.288C132.52 19.9343 132.748 20.004 132.936 20.1409C133.123 20.2779 133.259 20.474 133.321 20.6976L138.605 34.6406L143.888 20.6976C143.976 20.5004 144.104 20.3242 144.265 20.1806C144.445 20.0204 144.68 19.9364 144.921 19.9462H148.178C148.286 19.9479 148.393 19.9716 148.492 20.0159C148.591 20.0602 148.68 20.1242 148.753 20.204C148.836 20.2836 148.902 20.3792 148.946 20.485C148.991 20.5909 149.013 20.7047 149.012 20.8195C149.017 20.94 149.003 21.0606 148.972 21.1772L141.504 39.6096C141.395 39.8936 141.218 40.1462 140.987 40.3445C140.722 40.5337 140.399 40.625 140.074 40.6031H137.135C136.809 40.6242 136.485 40.5317 136.22 40.3414Z" fill="#ffffff"/>
<path d="M151.434 38.5936C150.566 37.7332 149.877 36.7092 149.406 35.5808C148.936 34.4525 148.694 33.2421 148.694 32.0196L148.654 30.2724L148.694 28.5245C148.698 27.302 148.947 26.0926 149.424 24.9672C149.902 23.8418 150.599 22.8229 151.475 21.97C153.193 20.3559 155.576 19.5488 158.624 19.5488C161.673 19.5488 164.056 20.3559 165.775 21.97C166.651 22.823 167.348 23.842 167.825 24.9674C168.303 26.0927 168.551 27.302 168.556 28.5245C168.583 28.8416 168.596 29.4242 168.596 30.2724C168.596 31.1206 168.583 31.703 168.556 32.0196C168.556 33.2421 168.313 34.4525 167.843 35.5808C167.372 36.7091 166.683 37.7331 165.815 38.5936C164.12 40.1957 161.724 40.9971 158.625 40.9976C155.527 40.9981 153.13 40.1968 151.434 38.5936ZM161.881 35.7334C162.732 34.6084 163.179 33.2304 163.152 31.8204C163.178 31.5557 163.192 31.0394 163.192 30.2717C163.192 29.5039 163.178 28.9876 163.152 28.7229C163.179 27.313 162.732 25.9349 161.881 24.8099C161.012 23.9567 159.842 23.4788 158.624 23.4788C157.406 23.4788 156.236 23.9567 155.367 24.8099C154.516 25.9347 154.068 27.3128 154.095 28.7229L154.055 30.2717L154.095 31.8204C154.068 33.2305 154.516 34.6087 155.367 35.7334C156.236 36.5866 157.406 37.0645 158.624 37.0645C159.842 37.0645 161.012 36.5866 161.881 35.7334Z" fill="#ffffff"/>
<path d="M172.525 38.5934C171.119 36.9917 170.416 34.8134 170.416 32.0585V20.8975C170.415 20.7721 170.44 20.6478 170.487 20.5318C170.535 20.4158 170.605 20.3104 170.694 20.2218C170.783 20.1331 170.888 20.0629 171.004 20.0152C171.12 19.9674 171.244 19.9432 171.37 19.9438H174.866C174.993 19.9344 175.121 19.9526 175.241 19.9972C175.361 20.0418 175.47 20.1117 175.561 20.2022C175.651 20.2927 175.721 20.4017 175.765 20.5217C175.81 20.6417 175.828 20.7699 175.818 20.8975V31.821C175.818 35.105 177.262 36.7468 180.148 36.7462C180.757 36.7762 181.365 36.6746 181.931 36.4484C182.497 36.2223 183.008 35.8769 183.429 35.4357C184.283 34.4317 184.717 33.1369 184.64 31.821V20.8975C184.64 20.7721 184.664 20.6479 184.712 20.5319C184.76 20.416 184.83 20.3107 184.918 20.222C185.007 20.1333 185.112 20.0631 185.228 20.0154C185.344 19.9676 185.468 19.9433 185.594 19.9438H189.09C189.217 19.9344 189.346 19.9526 189.466 19.9972C189.586 20.0417 189.695 20.1117 189.785 20.2022C189.876 20.2927 189.945 20.4017 189.99 20.5217C190.035 20.6416 190.053 20.7698 190.043 20.8975V39.6423C190.049 39.8927 189.956 40.1353 189.785 40.3179C189.696 40.4113 189.587 40.4845 189.467 40.5324C189.348 40.5804 189.219 40.6021 189.09 40.5959H185.873C185.747 40.5965 185.623 40.5721 185.507 40.5244C185.391 40.4766 185.286 40.4064 185.197 40.3177C185.109 40.2291 185.039 40.1237 184.991 40.0078C184.943 39.8919 184.919 39.7677 184.92 39.6423V38.0138C183.436 39.9998 181.225 40.993 178.286 40.9935C177.207 41.0467 176.131 40.8589 175.134 40.4437C174.138 40.0285 173.246 39.3964 172.525 38.5934Z" fill="#ffffff"/>
<path d="M194.871 38.5738C193.98 37.6995 193.276 36.6533 192.801 35.4987C192.327 34.3441 192.092 33.1051 192.111 31.8569L192.071 30.2683L192.111 28.6797C192.092 27.4315 192.327 26.1925 192.801 25.0379C193.276 23.8833 193.98 22.8371 194.871 21.9628C196.792 20.28 199.293 19.4115 201.843 19.5416C203.661 19.4877 205.466 19.8693 207.107 20.6545C208.398 21.266 209.507 22.2039 210.324 23.3757C210.962 24.2716 211.353 25.3198 211.456 26.4147C211.471 26.5396 211.456 26.6664 211.411 26.784C211.366 26.9016 211.293 27.0065 211.198 27.0895C211.012 27.2698 210.763 27.3696 210.503 27.3675H207.007C206.787 27.3815 206.569 27.3182 206.391 27.1887C206.208 27.0168 206.065 26.8063 205.974 26.5724C205.686 25.6908 205.139 24.9159 204.406 24.348C203.668 23.8724 202.8 23.6364 201.923 23.6725C201.331 23.6416 200.739 23.7413 200.19 23.9646C199.641 24.1878 199.147 24.5291 198.745 24.9643C197.888 26.0839 197.452 27.4689 197.513 28.8773L197.473 30.3472L197.513 31.6577C197.617 35.1271 199.087 36.8618 201.923 36.8618C202.806 36.9031 203.68 36.6666 204.422 36.1854C205.146 35.6124 205.685 34.8386 205.971 33.961C206.063 33.7274 206.205 33.5169 206.388 33.3448C206.567 33.2157 206.784 33.1527 207.004 33.1667H210.5C210.759 33.1646 211.009 33.2645 211.195 33.4447C211.29 33.5278 211.363 33.6327 211.408 33.7502C211.453 33.8678 211.468 33.9946 211.453 34.1196C211.348 35.1926 210.964 36.2196 210.341 37.0992C209.53 38.2663 208.436 39.2091 207.163 39.8399C205.511 40.6578 203.682 41.0536 201.84 40.9919C199.291 41.1219 196.792 40.2547 194.871 38.5738Z" fill="#ffffff"/>
<path d="M213.525 40.3204C213.435 40.2327 213.364 40.1276 213.316 40.0114C213.268 39.8952 213.245 39.7704 213.248 39.6448V13.3497C213.241 13.2206 213.263 13.0917 213.311 12.9717C213.359 12.8517 213.432 12.7433 213.525 12.6538C213.708 12.4829 213.95 12.3904 214.2 12.396H217.735C217.863 12.3865 217.991 12.4046 218.111 12.4491C218.231 12.4937 218.34 12.5636 218.431 12.6541C218.522 12.7447 218.592 12.8537 218.636 12.9737C218.681 13.0938 218.699 13.222 218.689 13.3497V22.4097C219.47 21.4702 220.456 20.7234 221.573 20.2273C222.689 19.7312 223.904 19.4993 225.125 19.5496C226.214 19.5022 227.301 19.6927 228.309 20.1079C229.318 20.523 230.224 21.1529 230.964 21.9536C232.422 23.5563 233.151 25.7346 233.151 28.4885V39.6503C233.156 39.9006 233.064 40.1432 232.892 40.3258C232.803 40.4193 232.695 40.4924 232.574 40.5404C232.454 40.5884 232.325 40.61 232.196 40.6039H228.622C228.496 40.6044 228.372 40.5801 228.256 40.5324C228.14 40.4846 228.035 40.4144 227.946 40.3257C227.857 40.2371 227.787 40.1318 227.739 40.0158C227.692 39.8999 227.667 39.7756 227.668 39.6503V28.7228C227.75 27.4133 227.347 26.1193 226.536 25.0879C226.119 24.644 225.608 24.2981 225.041 24.075C224.473 23.8519 223.864 23.7572 223.256 23.7976C222.638 23.7668 222.021 23.8677 221.446 24.0936C220.871 24.3196 220.35 24.6654 219.918 25.1082C219.053 26.1065 218.611 27.4035 218.687 28.7228V39.6464C218.692 39.8966 218.6 40.139 218.429 40.3219C218.34 40.4153 218.232 40.4884 218.112 40.5364C217.992 40.5844 217.863 40.6061 217.734 40.6H214.198C214.073 40.6019 213.948 40.5781 213.833 40.53C213.717 40.4819 213.612 40.4106 213.525 40.3204Z" fill="#ffffff"/>
<path d="M83.2963 56.8944C83.2301 56.8332 83.1887 56.7498 83.1799 56.6601L81.924 49.8939L81.9131 49.8096C81.9127 49.7802 81.9187 49.751 81.9305 49.724C81.9424 49.6971 81.9599 49.673 81.9818 49.6534C82.0024 49.633 82.0267 49.6169 82.0536 49.6061C82.0804 49.5952 82.1091 49.5898 82.138 49.5901H83.0675C83.2429 49.5901 83.3413 49.6604 83.3627 49.801L84.239 54.5825L85.1888 51.4896C85.2102 51.4138 85.2558 51.347 85.3187 51.2995C85.3816 51.252 85.4583 51.2263 85.5371 51.2264H86.1073C86.1859 51.2216 86.2636 51.2457 86.3257 51.2942C86.3879 51.3427 86.4302 51.4122 86.4447 51.4896L87.4053 54.5723L88.2817 49.8018C88.285 49.77 88.2947 49.7391 88.3101 49.7111C88.3255 49.6831 88.3464 49.6584 88.3715 49.6385C88.4337 49.6027 88.5052 49.5861 88.5769 49.5909H89.5055C89.5332 49.5907 89.5606 49.5962 89.586 49.6071C89.6114 49.6179 89.6342 49.634 89.6531 49.6542C89.6737 49.6746 89.6899 49.699 89.7007 49.7258C89.7116 49.7526 89.7169 49.7814 89.7164 49.8104C89.7172 49.8389 89.7135 49.8673 89.7055 49.8947L88.4496 56.6608C88.4467 56.7061 88.4348 56.7503 88.4146 56.7909C88.3944 56.8315 88.3662 56.8676 88.3317 56.8971C88.2973 56.9266 88.2573 56.9489 88.2141 56.9626C88.1708 56.9764 88.1253 56.9813 88.0801 56.9772H87.3733C87.2863 56.9807 87.2006 56.9545 87.1304 56.9029C87.0685 56.8553 87.024 56.7886 87.0039 56.7132L85.8214 53.1876L84.6389 56.7132C84.6132 56.7927 84.562 56.8617 84.4933 56.9094C84.4246 56.9571 84.3421 56.9809 84.2585 56.9772H83.5517C83.4592 56.9828 83.3679 56.9532 83.2963 56.8944Z" fill="#00C0C9"/>
<path d="M92.2631 56.868C91.9804 56.7378 91.7367 56.5358 91.5563 56.2822C91.3427 55.9761 91.2569 55.5987 91.3171 55.2303C91.3774 54.8619 91.5789 54.5315 91.8789 54.3093C92.3521 53.9796 92.8999 53.7729 93.473 53.7079L94.9186 53.4962V53.2744C94.9281 53.1487 94.9122 53.0223 94.872 52.9027C94.8317 52.7832 94.7679 52.673 94.6843 52.5785C94.4755 52.4043 94.2062 52.3201 93.9353 52.3442C93.7385 52.3356 93.5431 52.3816 93.3706 52.477C93.2466 52.5494 93.1315 52.6362 93.0278 52.7355C92.9429 52.8272 92.8867 52.887 92.8591 52.9151C92.8521 52.9512 92.8326 52.9837 92.804 53.0069C92.7754 53.03 92.7396 53.0423 92.7028 53.0417H91.8906C91.83 53.0424 91.7715 53.0198 91.7273 52.9784C91.7045 52.9567 91.6866 52.9303 91.6748 52.9011C91.6631 52.8718 91.6578 52.8404 91.6594 52.8089C91.6847 52.5876 91.7743 52.3785 91.9171 52.2075C92.1201 51.9535 92.3832 51.7541 92.6825 51.6272C93.0818 51.4541 93.5144 51.3712 93.9494 51.3843C94.6045 51.3263 95.2563 51.5271 95.7653 51.9435C95.9561 52.1356 96.1052 52.3651 96.2031 52.6175C96.3011 52.8699 96.3459 53.1398 96.3347 53.4103V56.7243C96.3362 56.7908 96.3115 56.8553 96.2659 56.9039C96.2424 56.9288 96.2137 56.9483 96.1819 56.9611C96.1501 56.9739 96.1159 56.9797 96.0816 56.9781H95.2264C95.1931 56.9783 95.16 56.9719 95.1292 56.9593C95.0983 56.9466 95.0703 56.928 95.0467 56.9045C95.0231 56.881 95.0044 56.853 94.9917 56.8222C94.979 56.7914 94.9724 56.7583 94.9725 56.725V56.3134C94.8035 56.5514 94.5763 56.742 94.3126 56.8672C93.9812 57.0216 93.6181 57.096 93.2527 57.0843C92.9107 57.0886 92.5722 57.0146 92.2631 56.868ZM94.5586 55.7019C94.8237 55.3957 94.9566 54.9968 94.928 54.5928V54.3718L93.8729 54.5405C93.5468 54.5755 93.232 54.6799 92.9497 54.8467C92.8574 54.8986 92.7802 54.9735 92.7254 55.0641C92.6707 55.1547 92.6403 55.2579 92.6373 55.3637C92.6343 55.4689 92.659 55.573 92.7089 55.6656C92.7588 55.7583 92.8321 55.8362 92.9215 55.8917C93.1259 56.0223 93.3649 56.0885 93.6073 56.0815C93.7836 56.0879 93.9592 56.0574 94.123 55.9921C94.2868 55.9267 94.4352 55.8279 94.5586 55.7019Z" fill="#00C0C9"/>
<path d="M98.813 56.9053C98.7889 56.8821 98.7699 56.8542 98.7571 56.8232C98.7443 56.7923 98.7381 56.7591 98.7388 56.7257V51.7544C98.7385 51.7203 98.7448 51.6864 98.7576 51.6548C98.7703 51.6232 98.7891 51.5944 98.813 51.57C98.8356 51.5448 98.8633 51.5248 98.8943 51.5113C98.9253 51.4978 98.9588 51.4912 98.9926 51.4919H99.8479C99.883 51.4904 99.9181 51.4962 99.9509 51.5089C99.9837 51.5217 100.013 51.5412 100.038 51.5661C100.063 51.591 100.083 51.6208 100.095 51.6536C100.108 51.6864 100.114 51.7216 100.112 51.7567V52.1894C100.278 51.9662 100.498 51.7884 100.751 51.6724C101.028 51.5484 101.328 51.487 101.632 51.4927H102.064C102.098 51.4899 102.133 51.4945 102.165 51.5062C102.197 51.518 102.226 51.5366 102.25 51.5608C102.274 51.585 102.293 51.6141 102.304 51.6462C102.316 51.6783 102.32 51.7125 102.318 51.7466V52.5065C102.319 52.5732 102.294 52.6378 102.248 52.6861C102.224 52.711 102.196 52.7305 102.164 52.7433C102.132 52.7561 102.098 52.7619 102.064 52.7603H101.24C101.097 52.7481 100.953 52.7673 100.818 52.8165C100.683 52.8658 100.561 52.9439 100.459 53.0454C100.358 53.147 100.279 53.2694 100.23 53.4043C100.181 53.5393 100.161 53.6833 100.174 53.8265V56.7288C100.174 56.7622 100.168 56.7954 100.155 56.8263C100.142 56.8572 100.123 56.8851 100.099 56.9084C100.075 56.9331 100.045 56.9524 100.012 56.9652C99.9795 56.978 99.9446 56.9839 99.9096 56.9826H98.9919C98.9584 56.9827 98.9251 56.9759 98.8944 56.9626C98.8636 56.9493 98.8359 56.9298 98.813 56.9053Z" fill="#00C0C9"/>
<path d="M104.27 56.9053C104.245 56.8821 104.226 56.8542 104.214 56.8233C104.201 56.7924 104.195 56.7591 104.195 56.7257V51.7544C104.195 51.6856 104.221 51.6193 104.27 51.5701C104.292 51.545 104.32 51.525 104.35 51.5115C104.381 51.4981 104.415 51.4914 104.448 51.492H105.304C105.339 51.4903 105.374 51.496 105.407 51.5087C105.44 51.5214 105.469 51.5409 105.494 51.5659C105.519 51.5908 105.539 51.6207 105.551 51.6535C105.564 51.6864 105.569 51.7216 105.568 51.7567V52.1894C105.734 51.9665 105.954 51.7888 106.207 51.6724C106.483 51.5485 106.784 51.4872 107.088 51.4927H107.521C107.555 51.4899 107.589 51.4945 107.621 51.5063C107.653 51.518 107.682 51.5366 107.707 51.5608C107.731 51.585 107.749 51.6142 107.761 51.6462C107.773 51.6783 107.777 51.7126 107.774 51.7466V52.5065C107.776 52.5731 107.751 52.6376 107.705 52.6862C107.682 52.711 107.653 52.7305 107.621 52.7433C107.589 52.7561 107.555 52.762 107.521 52.7604H106.697C106.554 52.7481 106.41 52.7673 106.275 52.8166C106.14 52.8658 106.018 52.9439 105.916 53.0455C105.814 53.147 105.736 53.2695 105.687 53.4044C105.638 53.5393 105.619 53.6834 105.631 53.8265V56.7288C105.631 56.7623 105.625 56.7954 105.612 56.8263C105.6 56.8572 105.581 56.8852 105.557 56.9085C105.532 56.9332 105.502 56.9525 105.47 56.9652C105.437 56.978 105.402 56.9839 105.367 56.9826H104.448C104.415 56.9828 104.382 56.9761 104.351 56.9628C104.32 56.9494 104.292 56.9299 104.27 56.9053Z" fill="#00C0C9"/>
<path d="M110.173 56.868C109.891 56.7378 109.647 56.5358 109.467 56.2822C109.253 55.9762 109.167 55.5987 109.227 55.2302C109.287 54.8616 109.489 54.5312 109.789 54.3093C110.262 53.9797 110.81 53.773 111.382 53.7079L112.828 53.4962V53.2744C112.837 53.1487 112.822 53.0223 112.781 52.9028C112.741 52.7833 112.677 52.673 112.594 52.5785C112.385 52.4042 112.115 52.32 111.844 52.3442C111.647 52.3357 111.452 52.3817 111.28 52.477C111.156 52.5492 111.041 52.636 110.937 52.7355C110.852 52.8272 110.796 52.887 110.769 52.9151C110.761 52.9509 110.741 52.983 110.713 53.006C110.684 53.029 110.649 53.0416 110.612 53.0417H109.799C109.738 53.0427 109.68 53.02 109.635 52.9784C109.612 52.9567 109.594 52.9303 109.583 52.9011C109.571 52.8718 109.566 52.8404 109.567 52.8089C109.593 52.5876 109.682 52.3785 109.825 52.2075C110.028 51.9534 110.291 51.7539 110.59 51.6272C110.99 51.4541 111.422 51.3711 111.857 51.3843C112.512 51.3263 113.164 51.5271 113.673 51.9435C113.864 52.1356 114.013 52.3651 114.111 52.6175C114.209 52.8699 114.254 53.1398 114.243 53.4103V56.7243C114.244 56.7908 114.219 56.8553 114.174 56.9039C114.15 56.9288 114.122 56.9483 114.09 56.9611C114.058 56.9739 114.024 56.9797 113.99 56.9781H113.134C113.101 56.9783 113.068 56.9719 113.037 56.9593C113.006 56.9466 112.978 56.928 112.955 56.9045C112.931 56.881 112.912 56.853 112.9 56.8222C112.887 56.7914 112.88 56.7583 112.88 56.725V56.3134C112.711 56.5511 112.484 56.7416 112.22 56.8672C111.889 57.0216 111.526 57.096 111.161 57.0843C110.819 57.0882 110.482 57.0143 110.173 56.868ZM112.469 55.7019C112.734 55.3957 112.867 54.9968 112.838 54.5928V54.3718L111.783 54.5405C111.457 54.5755 111.142 54.6799 110.86 54.8467C110.768 54.8986 110.69 54.9735 110.636 55.0641C110.581 55.1547 110.551 55.2579 110.548 55.3637C110.545 55.4689 110.569 55.573 110.619 55.6656C110.669 55.7583 110.742 55.8362 110.832 55.8917C111.036 56.0223 111.275 56.0885 111.518 56.0815C111.694 56.088 111.87 56.0576 112.034 55.9923C112.198 55.9269 112.346 55.828 112.47 55.7019H112.469Z" fill="#00C0C9"/>
<path d="M116.726 56.9052C116.702 56.882 116.682 56.854 116.67 56.8231C116.657 56.7922 116.651 56.759 116.651 56.7255V51.7433C116.651 51.71 116.658 51.6769 116.67 51.6461C116.683 51.6153 116.701 51.5872 116.725 51.5636C116.749 51.54 116.777 51.5213 116.807 51.5086C116.838 51.4959 116.871 51.4894 116.904 51.4895H117.769C117.802 51.4893 117.836 51.4957 117.866 51.5084C117.897 51.5211 117.925 51.5398 117.949 51.5634C117.973 51.587 117.991 51.615 118.004 51.6459C118.017 51.6768 118.023 51.7099 118.023 51.7433V52.1752C118.233 51.9128 118.502 51.7041 118.809 51.5665C119.115 51.4289 119.45 51.3663 119.786 51.384C120.074 51.3709 120.361 51.4213 120.627 51.5317C120.894 51.6421 121.132 51.8098 121.327 52.0229C121.727 52.5098 121.931 53.1295 121.896 53.7592V56.7271C121.898 56.7936 121.873 56.8582 121.827 56.9067C121.804 56.9316 121.775 56.9511 121.743 56.9639C121.711 56.9767 121.677 56.9825 121.643 56.9809H120.714C120.681 56.9811 120.648 56.9747 120.617 56.9621C120.586 56.9495 120.558 56.9308 120.535 56.9073C120.511 56.8838 120.492 56.8558 120.48 56.825C120.467 56.7942 120.46 56.7612 120.461 56.7279V53.8256C120.483 53.4775 120.376 53.1335 120.16 52.8594C120.049 52.7415 119.914 52.6496 119.763 52.5903C119.613 52.531 119.451 52.5058 119.29 52.5165C119.126 52.5081 118.963 52.5348 118.811 52.5949C118.659 52.655 118.521 52.7471 118.408 52.8649C118.181 53.1318 118.066 53.4758 118.086 53.8256V56.7279C118.088 56.7944 118.063 56.8589 118.017 56.9075C117.994 56.9324 117.965 56.9519 117.933 56.9647C117.902 56.9775 117.867 56.9833 117.833 56.9817H116.904C116.871 56.982 116.838 56.9754 116.807 56.9622C116.776 56.949 116.749 56.9296 116.726 56.9052Z" fill="#00C0C9"/>
<path d="M125.269 56.4764C124.922 56.0675 124.75 55.5389 124.789 55.0041V52.608H123.955C123.921 52.6087 123.887 52.6021 123.856 52.5886C123.825 52.5751 123.797 52.5551 123.775 52.5298C123.727 52.4803 123.7 52.4138 123.701 52.3447V51.7434C123.7 51.71 123.707 51.677 123.72 51.6461C123.732 51.6153 123.751 51.5873 123.774 51.5637C123.798 51.5401 123.826 51.5214 123.857 51.5086C123.887 51.4959 123.92 51.4894 123.954 51.4895H124.788V49.7376C124.786 49.7034 124.792 49.6692 124.805 49.6374C124.818 49.6056 124.837 49.577 124.862 49.5533C124.911 49.5077 124.975 49.483 125.042 49.4846H125.897C125.931 49.4817 125.965 49.4863 125.997 49.498C126.029 49.5098 126.058 49.5283 126.082 49.5524C126.106 49.5765 126.125 49.6055 126.137 49.6375C126.148 49.6695 126.153 49.7037 126.15 49.7376V51.4895H127.469C127.503 51.4865 127.538 51.491 127.57 51.5027C127.602 51.5144 127.631 51.5331 127.655 51.5573C127.679 51.5814 127.698 51.6106 127.71 51.6428C127.721 51.6749 127.726 51.7093 127.723 51.7434V52.3447C127.724 52.3802 127.717 52.4154 127.704 52.4482C127.69 52.481 127.67 52.5106 127.645 52.5353C127.622 52.5593 127.594 52.5783 127.563 52.591C127.532 52.6038 127.499 52.6101 127.465 52.6095H126.146V54.9003C126.129 55.1393 126.184 55.3779 126.302 55.5861C126.363 55.6669 126.443 55.731 126.535 55.772C126.628 55.813 126.729 55.8297 126.83 55.8204H127.557C127.591 55.8204 127.624 55.8269 127.654 55.8397C127.685 55.8524 127.713 55.8711 127.737 55.8947C127.76 55.9183 127.779 55.9463 127.791 55.9771C127.804 56.0079 127.811 56.0409 127.81 56.0742V56.7287C127.812 56.7951 127.788 56.8595 127.743 56.9083C127.719 56.9332 127.69 56.9527 127.658 56.9655C127.626 56.9783 127.592 56.9841 127.557 56.9825H126.702C126.441 57.001 126.18 56.9657 125.933 56.8786C125.686 56.7915 125.46 56.6546 125.269 56.4764Z" fill="#00C0C9"/>
<path d="M130.657 58.9204C130.637 58.9016 130.621 58.8788 130.61 58.8534C130.599 58.8279 130.593 58.8005 130.593 58.7728C130.592 58.714 130.607 58.6561 130.636 58.6049L131.459 56.6523L129.433 51.8708C129.409 51.8248 129.394 51.7747 129.39 51.7232C129.396 51.6622 129.422 51.6049 129.464 51.56C129.484 51.538 129.508 51.5205 129.535 51.5085C129.561 51.4966 129.591 51.4904 129.62 51.4904H130.475C130.538 51.4889 130.6 51.5077 130.651 51.544C130.702 51.5803 130.74 51.6322 130.76 51.692L132.165 55.1433L133.611 51.692C133.631 51.6321 133.669 51.5802 133.72 51.5439C133.772 51.5076 133.833 51.4889 133.896 51.4904H134.74C134.798 51.4905 134.854 51.5135 134.896 51.5545C134.917 51.5728 134.934 51.5955 134.946 51.621C134.958 51.6464 134.964 51.6741 134.964 51.7021C134.962 51.7606 134.948 51.8181 134.923 51.8708L131.935 58.7845C131.912 58.8441 131.872 58.8953 131.819 58.9312C131.766 58.9671 131.704 58.986 131.64 58.9853H130.806C130.778 58.9855 130.751 58.9798 130.725 58.9686C130.699 58.9575 130.676 58.941 130.657 58.9204Z" fill="#00C0C9"/>
<path d="M140.198 56.9053C140.174 56.8821 140.155 56.8542 140.142 56.8233C140.129 56.7923 140.123 56.7591 140.124 56.7257V51.7434C140.123 51.7101 140.13 51.6771 140.142 51.6462C140.155 51.6154 140.174 51.5874 140.197 51.5638C140.221 51.5402 140.249 51.5215 140.28 51.5087C140.31 51.496 140.343 51.4895 140.377 51.4896H141.2C141.233 51.4895 141.266 51.496 141.297 51.5087C141.328 51.5215 141.356 51.5402 141.379 51.5638C141.403 51.5874 141.421 51.6154 141.434 51.6462C141.447 51.6771 141.453 51.7101 141.453 51.7434V52.1019C141.631 51.8674 141.863 51.6796 142.13 51.5547C142.397 51.4298 142.69 51.3716 142.984 51.385C143.319 51.3581 143.655 51.4333 143.947 51.6005C144.239 51.7677 144.473 52.0193 144.62 52.3222C144.794 52.0355 145.042 51.8006 145.338 51.6419C145.644 51.4703 145.99 51.3812 146.341 51.3834C146.605 51.3747 146.868 51.423 147.112 51.5251C147.356 51.6271 147.576 51.7804 147.755 51.9746C148.15 52.4566 148.346 53.0714 148.302 53.6929V56.7218C148.303 56.7882 148.279 56.8526 148.234 56.9014C148.21 56.9263 148.181 56.9458 148.149 56.9586C148.117 56.9714 148.083 56.9772 148.049 56.9756H147.183C147.15 56.9758 147.117 56.9694 147.086 56.9567C147.055 56.9441 147.028 56.9255 147.004 56.9019C146.98 56.8784 146.962 56.8504 146.949 56.8196C146.937 56.7888 146.93 56.7558 146.93 56.7225V53.778C146.961 53.4324 146.861 53.0879 146.651 52.8119C146.555 52.7114 146.44 52.6325 146.311 52.5806C146.183 52.5287 146.045 52.505 145.906 52.5112C145.774 52.5094 145.643 52.5358 145.522 52.5886C145.401 52.6414 145.292 52.7193 145.203 52.8174C144.987 53.0886 144.883 53.4324 144.913 53.778V56.7225C144.913 56.7559 144.906 56.7889 144.894 56.8197C144.881 56.8505 144.862 56.8784 144.839 56.902C144.815 56.9255 144.787 56.9442 144.756 56.9568C144.725 56.9694 144.692 56.9758 144.659 56.9756H143.794C143.761 56.9757 143.728 56.9692 143.697 56.9565C143.667 56.9439 143.639 56.9253 143.615 56.9018C143.591 56.8783 143.573 56.8503 143.56 56.8195C143.547 56.7888 143.541 56.7558 143.541 56.7225V53.778C143.572 53.4307 143.468 53.0848 143.251 52.8119C143.156 52.7132 143.042 52.6355 142.916 52.5837C142.79 52.5319 142.654 52.5072 142.517 52.5112C142.384 52.5089 142.251 52.5349 142.128 52.5877C142.005 52.6405 141.895 52.7188 141.804 52.8174C141.589 53.0888 141.485 53.4325 141.515 53.778V56.7225C141.515 56.7559 141.508 56.7889 141.496 56.8197C141.483 56.8505 141.464 56.8784 141.44 56.902C141.417 56.9255 141.389 56.9442 141.358 56.9568C141.327 56.9694 141.294 56.9758 141.261 56.9756H140.375C140.342 56.9765 140.31 56.9707 140.279 56.9586C140.249 56.9465 140.221 56.9284 140.198 56.9053Z" fill="#00C0C9"/>
<path d="M151.308 56.868C151.025 56.7376 150.782 56.5357 150.601 56.2822C150.388 55.9761 150.302 55.5987 150.362 55.2303C150.422 54.8619 150.624 54.5315 150.924 54.3093C151.397 53.9797 151.945 53.773 152.518 53.7079L153.964 53.4963V53.2744C153.973 53.1487 153.957 53.0223 153.917 52.9028C153.877 52.7832 153.813 52.673 153.729 52.5785C153.521 52.4042 153.251 52.3199 152.98 52.3442C152.783 52.3357 152.588 52.3817 152.416 52.477C152.292 52.5495 152.177 52.6363 152.073 52.7355C151.988 52.8272 151.932 52.887 151.904 52.9151C151.897 52.9513 151.878 52.9837 151.849 53.0069C151.82 53.03 151.785 53.0423 151.748 53.0417H150.935C150.874 53.0427 150.815 53.02 150.771 52.9784C150.748 52.9569 150.73 52.9305 150.718 52.9013C150.706 52.872 150.7 52.8405 150.702 52.8089C150.727 52.5875 150.817 52.3783 150.961 52.2076C151.163 51.9535 151.426 51.754 151.725 51.6272C152.124 51.4542 152.557 51.3712 152.992 51.3843C153.647 51.3263 154.298 51.5271 154.807 51.9436C154.998 52.1355 155.147 52.3649 155.246 52.6173C155.344 52.8698 155.389 53.1398 155.377 53.4104V56.7243C155.379 56.7908 155.354 56.8553 155.309 56.9039C155.285 56.9287 155.256 56.9482 155.224 56.961C155.193 56.9738 155.158 56.9796 155.124 56.9781H154.269C154.236 56.9782 154.203 56.9717 154.172 56.959C154.141 56.9464 154.113 56.9277 154.09 56.9042C154.066 56.8807 154.048 56.8527 154.035 56.822C154.022 56.7912 154.016 56.7583 154.016 56.725V56.3134C153.847 56.5511 153.619 56.7416 153.356 56.8672C153.024 57.0216 152.661 57.096 152.295 57.0843C151.954 57.0882 151.616 57.0142 151.308 56.868ZM153.604 55.7019C153.869 55.3954 154.002 54.9967 153.973 54.5928V54.3718L152.918 54.5405C152.592 54.5755 152.276 54.6799 151.994 54.8467C151.902 54.8987 151.825 54.9737 151.77 55.0642C151.715 55.1548 151.685 55.2579 151.681 55.3637C151.678 55.4689 151.703 55.573 151.753 55.6656C151.803 55.7583 151.876 55.8363 151.966 55.8917C152.17 56.0223 152.409 56.0884 152.651 56.0815C152.828 56.0881 153.004 56.0578 153.168 55.9924C153.332 55.9271 153.481 55.8281 153.604 55.7019Z" fill="#00C0C9"/>
<path d="M158.185 56.3985C157.782 55.8756 157.566 55.2325 157.573 54.5724L157.562 54.2241L157.573 53.8859C157.564 53.2331 157.778 52.5968 158.18 52.0817C158.381 51.8472 158.634 51.6623 158.918 51.5415C159.203 51.4206 159.511 51.3671 159.82 51.385C160.126 51.3716 160.43 51.4273 160.712 51.5479C160.993 51.6685 161.244 51.851 161.445 52.0817V49.7386C161.444 49.7044 161.449 49.6702 161.462 49.6384C161.475 49.6066 161.494 49.5779 161.519 49.5543C161.568 49.5086 161.632 49.4839 161.699 49.4856H162.596C162.63 49.4827 162.664 49.4873 162.696 49.499C162.728 49.5107 162.757 49.5293 162.782 49.5534C162.806 49.5775 162.824 49.6065 162.836 49.6385C162.848 49.6705 162.852 49.7047 162.849 49.7386V56.7265C162.851 56.7931 162.826 56.8577 162.781 56.9062C162.757 56.931 162.728 56.9505 162.696 56.9633C162.665 56.9761 162.631 56.9819 162.596 56.9804H161.762C161.729 56.9805 161.696 56.974 161.665 56.9613C161.634 56.9486 161.606 56.93 161.583 56.9065C161.559 56.883 161.541 56.855 161.528 56.8243C161.515 56.7936 161.509 56.7606 161.509 56.7273V56.3368C161.306 56.5855 161.048 56.7828 160.754 56.913C160.461 57.0431 160.141 57.1023 159.82 57.0858C159.513 57.1043 159.206 57.052 158.923 56.9328C158.639 56.8136 158.387 56.6308 158.185 56.3985ZM161.122 55.5644C161.325 55.2846 161.44 54.9496 161.449 54.6037C161.456 54.5193 161.46 54.3821 161.459 54.1921C161.459 54.002 161.455 53.8685 161.449 53.7914C161.443 53.4615 161.326 53.1433 161.116 52.8885C161.005 52.7612 160.865 52.6612 160.709 52.5962C160.552 52.5312 160.383 52.5029 160.214 52.5136C159.454 52.5136 159.049 52.9823 159 53.9195L158.99 54.2358L159 54.5529C159.05 55.4902 159.454 55.9588 160.214 55.9588C160.386 55.9713 160.558 55.9419 160.716 55.8732C160.874 55.8045 161.014 55.6986 161.122 55.5644Z" fill="#00C0C9"/>
<path d="M165.81 56.403C165.324 55.8858 165.06 55.1978 165.077 54.4879L165.067 54.2239L165.077 53.9592C165.072 53.2573 165.338 52.5805 165.821 52.0706C166.067 51.8371 166.358 51.6559 166.677 51.5381C166.995 51.4202 167.334 51.3681 167.673 51.3848C168.03 51.3632 168.388 51.4201 168.72 51.5514C169.053 51.6826 169.353 51.8852 169.599 52.1448C170.074 52.7101 170.317 53.4342 170.28 54.1716V54.3934C170.281 54.4268 170.275 54.46 170.262 54.4909C170.249 54.5218 170.23 54.5497 170.206 54.573C170.181 54.5977 170.152 54.617 170.119 54.6297C170.086 54.6425 170.051 54.6485 170.016 54.6472H166.512V54.7316C166.514 55.0827 166.626 55.4243 166.834 55.7078C166.929 55.8364 167.054 55.9396 167.199 56.0087C167.343 56.0777 167.502 56.1103 167.662 56.1038C167.856 56.109 168.048 56.0676 168.223 55.9831C168.397 55.8986 168.549 55.7734 168.665 55.618C168.708 55.5599 168.761 55.5099 168.821 55.4705C168.876 55.4457 168.936 55.4347 168.995 55.4384H169.903C169.963 55.4372 170.021 55.4577 170.066 55.4962C170.088 55.5131 170.105 55.5347 170.117 55.5593C170.129 55.5839 170.135 55.611 170.135 55.6383C170.108 55.8663 170.001 56.0774 169.834 56.2351C169.593 56.4923 169.3 56.6954 168.975 56.831C168.566 57.007 168.123 57.0933 167.677 57.0841C167.336 57.1019 166.995 57.0509 166.674 56.9338C166.354 56.8168 166.06 56.6362 165.81 56.403ZM168.845 53.7592V53.7272C168.862 53.3665 168.752 53.0112 168.532 52.7243C168.429 52.5985 168.297 52.4987 168.148 52.4326C167.999 52.3666 167.836 52.3363 167.673 52.344C167.511 52.3358 167.349 52.366 167.2 52.4321C167.052 52.4982 166.921 52.5983 166.818 52.7243C166.603 53.0129 166.494 53.3675 166.512 53.7272V53.7592H168.845Z" fill="#00C0C9"/>
<path d="M176.428 56.403C175.942 55.8858 175.678 55.1979 175.695 54.4879L175.685 54.2239L175.695 53.9592C175.69 53.2572 175.957 52.5806 176.439 52.0706C176.685 51.837 176.977 51.6558 177.295 51.538C177.614 51.4201 177.953 51.368 178.292 51.3849C178.649 51.3632 179.006 51.42 179.339 51.5513C179.672 51.6826 179.972 51.8852 180.218 52.1448C180.693 52.71 180.936 53.4342 180.899 54.1716V54.3934C180.899 54.4268 180.893 54.46 180.88 54.4909C180.868 54.5218 180.849 54.5497 180.825 54.573C180.8 54.5977 180.77 54.617 180.737 54.6298C180.705 54.6425 180.67 54.6485 180.635 54.6472H177.131V54.7316C177.133 55.0827 177.245 55.4243 177.452 55.7079C177.548 55.8363 177.673 55.9396 177.817 56.0086C177.962 56.0776 178.121 56.1103 178.281 56.1039C178.475 56.1092 178.667 56.0679 178.841 55.9833C179.016 55.8988 179.168 55.7735 179.284 55.6181C179.327 55.5602 179.38 55.5103 179.44 55.4705C179.494 55.4458 179.554 55.4348 179.614 55.4384H180.522C180.581 55.437 180.64 55.4576 180.686 55.4962C180.707 55.5131 180.724 55.5347 180.736 55.5593C180.748 55.584 180.754 55.611 180.754 55.6384C180.727 55.8662 180.621 56.0774 180.454 56.2351C180.213 56.4922 179.92 56.6953 179.595 56.831C179.186 57.0072 178.743 57.0935 178.297 57.0841C177.956 57.1023 177.614 57.0513 177.293 56.9343C176.972 56.8173 176.678 56.6366 176.428 56.403ZM179.462 53.7592V53.7272C179.48 53.3666 179.369 53.0114 179.15 52.7243C179.046 52.5987 178.914 52.4989 178.765 52.4329C178.616 52.3669 178.454 52.3365 178.291 52.344C178.129 52.336 177.967 52.3662 177.818 52.4323C177.669 52.4983 177.538 52.5984 177.436 52.7243C177.221 53.013 177.113 53.3676 177.13 53.7272V53.7592H179.462Z" fill="#00C0C9"/>
<path d="M183.681 56.868C183.398 56.7378 183.154 56.5359 182.973 56.2822C182.76 55.9761 182.674 55.5987 182.734 55.2303C182.794 54.8619 182.996 54.5315 183.296 54.3093C183.769 53.9797 184.317 53.773 184.89 53.7079L186.336 53.4963V53.2744C186.346 53.1487 186.33 53.0223 186.29 52.9028C186.25 52.7832 186.186 52.673 186.102 52.5785C185.893 52.4042 185.624 52.3199 185.353 52.3442C185.156 52.3357 184.961 52.3817 184.788 52.477C184.664 52.5495 184.549 52.6363 184.446 52.7355C184.361 52.8272 184.305 52.887 184.277 52.9151C184.27 52.9513 184.25 52.9837 184.222 53.0069C184.193 53.03 184.157 53.0423 184.121 53.0417H183.308C183.247 53.0425 183.189 53.0198 183.144 52.9784C183.121 52.9569 183.103 52.9305 183.091 52.9013C183.079 52.872 183.074 52.8405 183.076 52.8089C183.101 52.5876 183.191 52.3785 183.334 52.2076C183.537 51.9535 183.8 51.754 184.099 51.6272C184.498 51.4542 184.931 51.3713 185.366 51.3843C186.02 51.3263 186.672 51.5271 187.181 51.9436C187.372 52.1355 187.521 52.3649 187.619 52.6174C187.717 52.8698 187.762 53.1398 187.751 53.4104V56.7243C187.752 56.7908 187.728 56.8553 187.682 56.9039C187.659 56.9287 187.63 56.9482 187.598 56.961C187.566 56.9738 187.532 56.9796 187.498 56.9781H186.643C186.609 56.9782 186.576 56.9717 186.546 56.959C186.515 56.9464 186.487 56.9277 186.463 56.9042C186.44 56.8807 186.421 56.8527 186.409 56.822C186.396 56.7912 186.389 56.7583 186.39 56.725V56.3134C186.22 56.5511 185.993 56.7416 185.73 56.8672C185.398 57.0216 185.035 57.096 184.669 57.0843C184.327 57.0885 183.989 57.0145 183.681 56.868ZM185.976 55.7019C186.241 55.3954 186.374 54.9967 186.345 54.5928V54.3718L185.29 54.5405C184.964 54.5755 184.649 54.6799 184.366 54.8467C184.274 54.8987 184.197 54.9736 184.142 55.0641C184.087 55.1547 184.057 55.2579 184.053 55.3637C184.051 55.469 184.075 55.5732 184.125 55.6658C184.175 55.7585 184.249 55.8364 184.339 55.8917C184.543 56.0225 184.782 56.0886 185.024 56.0815C185.201 56.088 185.376 56.0577 185.54 55.9923C185.704 55.9269 185.853 55.828 185.976 55.7019Z" fill="#00C0C9"/>
<path d="M190.905 56.8475C190.599 56.727 190.326 56.5353 190.109 56.2883C189.964 56.1371 189.873 55.9425 189.85 55.7345C189.849 55.7026 189.855 55.6709 189.868 55.6417C189.881 55.6125 189.9 55.5865 189.924 55.5658C189.971 55.5244 190.031 55.5018 190.093 55.5025H190.927C190.957 55.5024 190.987 55.5091 191.014 55.5219C191.041 55.5347 191.065 55.5535 191.083 55.5768C191.111 55.5971 191.186 55.6611 191.305 55.7665C191.428 55.881 191.571 55.9706 191.728 56.0305C191.9 56.0957 192.082 56.1281 192.266 56.1258C192.509 56.1354 192.751 56.077 192.963 55.9571C193.032 55.9174 193.091 55.8632 193.137 55.7982C193.184 55.7333 193.215 55.6592 193.23 55.581C193.245 55.5027 193.242 55.4222 193.223 55.3449C193.204 55.2676 193.169 55.1954 193.119 55.1331C192.995 55.0167 192.845 54.9317 192.681 54.8855C192.374 54.7879 192.06 54.7096 191.743 54.6512C191.258 54.5769 190.8 54.3768 190.416 54.0709C190.274 53.9397 190.162 53.7792 190.088 53.6005C190.015 53.4218 189.98 53.2292 189.988 53.0361C189.99 52.7509 190.078 52.4729 190.242 52.2394C190.433 51.9708 190.694 51.7592 190.996 51.6271C191.373 51.461 191.782 51.3809 192.194 51.3927C192.614 51.3829 193.031 51.4603 193.419 51.62C193.717 51.739 193.986 51.9225 194.205 52.1574C194.357 52.305 194.453 52.5013 194.475 52.7119C194.475 52.7427 194.469 52.7732 194.457 52.8016C194.445 52.83 194.428 52.8558 194.406 52.8776C194.384 52.8994 194.359 52.9166 194.33 52.9284C194.302 52.9402 194.271 52.9463 194.24 52.9463H193.459C193.393 52.9423 193.33 52.9161 193.28 52.872C193.198 52.8096 193.12 52.7426 193.045 52.6713C192.938 52.5709 192.813 52.4915 192.676 52.437C192.518 52.3773 192.349 52.3484 192.18 52.3519C191.965 52.3388 191.751 52.3985 191.573 52.5213C191.504 52.5724 191.449 52.6393 191.411 52.7164C191.373 52.7935 191.355 52.8784 191.357 52.9642C191.352 53.0826 191.389 53.1991 191.462 53.2922C191.578 53.405 191.719 53.4883 191.874 53.5351C192.173 53.638 192.48 53.7163 192.792 53.7694C193.325 53.8392 193.827 54.0555 194.244 54.3942C194.385 54.5263 194.497 54.6866 194.573 54.8648C194.648 55.0429 194.685 55.2349 194.682 55.4284C194.684 55.6669 194.626 55.9021 194.514 56.1124C194.401 56.3227 194.238 56.5014 194.038 56.6319C193.5 56.9716 192.869 57.1341 192.233 57.0966C191.778 57.1062 191.326 57.0214 190.905 56.8475Z" fill="#00C0C9"/>
<path d="M197.46 58.9204C197.44 58.9016 197.423 58.8788 197.412 58.8534C197.401 58.828 197.396 58.8005 197.396 58.7728C197.395 58.7141 197.41 58.6563 197.438 58.6049L198.262 56.6523L196.235 51.8708C196.212 51.8248 196.197 51.7747 196.192 51.7232C196.199 51.6622 196.225 51.605 196.267 51.56C196.286 51.538 196.31 51.5205 196.337 51.5085C196.364 51.4965 196.393 51.4904 196.423 51.4905H197.278C197.341 51.4889 197.402 51.5077 197.454 51.544C197.505 51.5803 197.543 51.6322 197.562 51.692L198.968 55.1434L200.414 51.692C200.433 51.6321 200.471 51.5801 200.523 51.5438C200.574 51.5075 200.636 51.4888 200.699 51.4905H201.542C201.601 51.4906 201.657 51.5135 201.699 51.5545C201.72 51.5729 201.737 51.5955 201.749 51.621C201.76 51.6464 201.766 51.6741 201.767 51.7021C201.765 51.7606 201.751 51.8181 201.725 51.8708L198.738 58.7845C198.715 58.8441 198.674 58.8953 198.622 58.9312C198.569 58.9671 198.506 58.986 198.443 58.9853H197.609C197.581 58.9855 197.553 58.9798 197.528 58.9686C197.502 58.9575 197.479 58.9411 197.46 58.9204Z" fill="#00C0C9"/>
</svg>
