<svg version="1.2" xmlns="http://www.w3.org/2000/svg" viewBox="0 0 800 204" width="800" height="204">
	<title>Wevouch logo new-01-svg</title>
	<style>
		.s0 { fill: #00c2d3 } 
		.s1 { fill: #ffffff } 
	</style>
	<g id="Layer">
		<path id="Layer" fill-rule="evenodd" class="s0" d="m274.5 177.7q-0.2 0-0.5-0.2-0.2-0.2-0.2-0.5 0-0.1 0.1-0.3l7.9-21.3q0.1-0.3 0.4-0.6 0.3-0.2 0.8-0.2h3.6q0.5 0 0.8 0.2 0.2 0.3 0.4 0.6l7.9 21.3q0 0.2 0.1 0.3 0 0.3-0.2 0.5-0.2 0.2-0.5 0.2h-2.9q-0.4 0-0.7-0.2-0.2-0.2-0.2-0.4l-1.6-4h-9.8l-1.6 4q0 0.2-0.2 0.4-0.2 0.2-0.7 0.2zm6.5-8.4h7.5l-3.7-10.2z"/>
		<path id="Layer" fill-rule="evenodd" class="s0" d="m305.4 178.1q-1.7 0-3.1-0.7-1.4-0.7-2.2-1.8-0.8-1.2-0.8-2.6 0-2.3 1.9-3.7 1.8-1.4 4.9-1.8l4.5-0.7v-0.7q0-1.4-0.7-2.1-0.7-0.8-2.4-0.8-1.2 0-1.9 0.5-0.7 0.5-1.1 1.3-0.3 0.4-0.8 0.4h-2.6q-0.3 0-0.5-0.2-0.2-0.2-0.2-0.5 0-0.6 0.5-1.3 0.4-0.8 1.2-1.5 0.8-0.7 2.2-1.2 1.4-0.5 3.3-0.5 2.1 0 3.5 0.5 1.4 0.5 2.3 1.4 0.8 0.9 1.2 2 0.4 1.2 0.4 2.5v10.3q0 0.4-0.2 0.6-0.2 0.2-0.6 0.2h-2.6q-0.4 0-0.6-0.2-0.2-0.2-0.2-0.6v-1.3q-0.5 0.6-1.2 1.2-0.7 0.6-1.7 0.9-1.1 0.4-2.5 0.4zm1.1-3.2q1.2 0 2.1-0.5 1-0.5 1.5-1.5 0.5-1.1 0.5-2.6v-0.7l-3.3 0.5q-1.9 0.3-2.9 0.9-0.9 0.7-0.9 1.7 0 0.7 0.4 1.2 0.5 0.5 1.2 0.8 0.7 0.2 1.4 0.2z"/>
		<path id="Layer" fill-rule="evenodd" class="s0" d="m322.1 184q-0.4 0-0.6-0.2-0.2-0.3-0.2-0.6v-21.9q0-0.3 0.2-0.5 0.2-0.3 0.6-0.3h2.6q0.3 0 0.6 0.3 0.2 0.2 0.2 0.5v1.4q0.8-1.1 2-1.8 1.3-0.7 3.3-0.7 1.7 0 3 0.6 1.3 0.5 2.1 1.6 0.9 1 1.4 2.4 0.4 1.5 0.5 3.2 0 0.5 0 1.1 0 0.6 0 1.2 0 1.7-0.5 3.1-0.5 1.4-1.3 2.4-0.9 1.1-2.2 1.7-1.3 0.6-3 0.6-1.8 0-3.1-0.7-1.2-0.6-2-1.7v7.5q0 0.3-0.2 0.6-0.3 0.2-0.6 0.2c0 0-2.8 0-2.8 0zm7.4-9.5q1.5 0 2.2-0.6 0.8-0.6 1.2-1.6 0.4-1 0.4-2.2 0.1-1 0-2 0-1.2-0.4-2.1-0.4-1-1.2-1.6-0.7-0.7-2.2-0.7-1.3 0-2.2 0.7-0.8 0.6-1.2 1.6-0.4 0.9-0.4 2-0.1 0.6-0.1 1.2 0 0.7 0.1 1.3 0 1 0.4 1.9 0.5 0.9 1.3 1.5 0.8 0.6 2.1 0.6z"/>
		<path id="Layer" class="s0" d="m344.3 177.7q-0.3 0-0.5-0.2-0.3-0.2-0.3-0.6v-21.8q0-0.4 0.3-0.6 0.2-0.2 0.5-0.2h2.7q0.4 0 0.6 0.2 0.2 0.2 0.2 0.6v11.3l5.5-5.3q0.4-0.3 0.6-0.4 0.2-0.2 0.7-0.2h3q0.4 0 0.6 0.2 0.2 0.2 0.2 0.6 0 0.1-0.1 0.3-0.1 0.1-0.3 0.3l-6.8 6.3 7.7 8.2q0.3 0.4 0.3 0.6 0 0.3-0.2 0.5-0.2 0.2-0.5 0.2h-3.2q-0.5 0-0.7-0.1-0.2-0.2-0.5-0.4l-6.3-6.7v6.4q0 0.4-0.2 0.6-0.2 0.2-0.6 0.2z"/>
		<path id="Layer" fill-rule="evenodd" class="s0" d="m368.3 178.1q-1.7 0-3.1-0.7-1.4-0.7-2.2-1.8-0.8-1.2-0.8-2.6 0-2.3 1.9-3.7 1.9-1.4 4.9-1.8l4.5-0.7v-0.7q0-1.4-0.7-2.1-0.7-0.8-2.4-0.8-1.1 0-1.9 0.5-0.7 0.5-1.1 1.3-0.3 0.4-0.8 0.4h-2.6q-0.3 0-0.5-0.2-0.2-0.2-0.2-0.5 0-0.6 0.5-1.3 0.4-0.8 1.2-1.5 0.9-0.7 2.2-1.2 1.4-0.5 3.3-0.5 2.1 0 3.5 0.5 1.4 0.5 2.3 1.4 0.8 0.9 1.2 2 0.4 1.2 0.4 2.5v10.3q0 0.4-0.2 0.6-0.2 0.2-0.6 0.2h-2.6q-0.4 0-0.6-0.2-0.2-0.2-0.2-0.6v-1.3q-0.4 0.6-1.2 1.2-0.7 0.6-1.7 0.9-1.1 0.4-2.5 0.4zm1.1-3.2q1.2 0 2.1-0.5 1-0.5 1.5-1.5 0.5-1.1 0.5-2.6v-0.7l-3.3 0.5q-1.9 0.3-2.9 0.9-0.9 0.7-0.9 1.7 0 0.7 0.4 1.2 0.5 0.5 1.2 0.8 0.7 0.2 1.4 0.2z"/>
		<path id="Layer" fill-rule="evenodd" class="s0" d="m391.8 177.7q-0.3 0-0.5-0.2-0.2-0.2-0.2-0.5 0-0.1 0.1-0.3l7.9-21.3q0.1-0.3 0.4-0.6 0.3-0.2 0.8-0.2h3.6q0.5 0 0.8 0.2 0.2 0.3 0.3 0.6l8 21.3q0 0.2 0 0.3 0 0.3-0.2 0.5-0.2 0.2-0.4 0.2h-2.9q-0.5 0-0.7-0.2-0.2-0.2-0.3-0.4l-1.5-4h-9.8l-1.6 4q0 0.2-0.2 0.4-0.3 0.2-0.7 0.2zm6.5-8.4h7.5l-3.8-10.2z"/>
		<path id="Layer" fill-rule="evenodd" class="s0" d="m418.5 184q-0.3 0-0.5-0.2-0.3-0.3-0.3-0.6v-21.9q0-0.3 0.3-0.5 0.2-0.3 0.5-0.3h2.6q0.4 0 0.6 0.3 0.2 0.2 0.2 0.5v1.4q0.8-1.1 2.1-1.8 1.3-0.7 3.2-0.7 1.8 0 3 0.6 1.3 0.5 2.2 1.6 0.8 1 1.3 2.4 0.5 1.5 0.5 3.2 0.1 0.5 0.1 1.1 0 0.6-0.1 1.2 0 1.7-0.5 3.1-0.4 1.4-1.3 2.4-0.9 1.1-2.2 1.7-1.2 0.6-3 0.6-1.8 0-3-0.7-1.3-0.6-2.1-1.7v7.5q0 0.3-0.2 0.6-0.2 0.2-0.6 0.2c0 0-2.8 0-2.8 0zm7.5-9.5q1.4 0 2.2-0.6 0.8-0.6 1.2-1.6 0.3-1 0.4-2.2 0-1 0-2-0.1-1.2-0.4-2.1-0.4-1-1.2-1.6-0.8-0.7-2.2-0.7-1.4 0-2.2 0.7-0.9 0.6-1.2 1.6-0.4 0.9-0.5 2 0 0.6 0 1.2 0 0.7 0 1.3 0.1 1 0.5 1.9 0.4 0.9 1.2 1.5 0.9 0.6 2.2 0.6z"/>
		<path id="Layer" class="s0" d="m440.7 177.7q-0.3 0-0.5-0.2-0.2-0.2-0.2-0.6v-15.6q0-0.3 0.2-0.5 0.2-0.3 0.5-0.3h2.8q0.3 0 0.5 0.3 0.2 0.2 0.2 0.5v1.4q0.9-1.1 2.2-1.8 1.4-0.7 3.4-0.7 2 0 3.5 0.9 1.4 0.9 2.3 2.6 0.8 1.6 0.8 3.9v9.3q0 0.4-0.3 0.6-0.2 0.2-0.5 0.2h-2.9q-0.4 0-0.6-0.2-0.2-0.2-0.2-0.6v-9.1q0-1.9-1-3-0.9-1.1-2.7-1.1-1.7 0-2.7 1.1-1.1 1.1-1.1 3v9.1q0 0.4-0.2 0.6-0.2 0.2-0.5 0.2c0 0-3 0-3 0z"/>
		<path id="Layer" fill-rule="evenodd" class="s0" d="m467.5 178.1q-1.7 0-3.1-0.7-1.4-0.7-2.2-1.8-0.8-1.2-0.8-2.6 0-2.3 1.9-3.7 1.9-1.4 4.9-1.8l4.5-0.7v-0.7q0-1.4-0.7-2.1-0.6-0.8-2.3-0.8-1.2 0-2 0.5-0.7 0.5-1.1 1.3-0.2 0.4-0.7 0.4h-2.6q-0.4 0-0.6-0.2-0.2-0.2-0.2-0.5 0.1-0.6 0.5-1.3 0.4-0.8 1.2-1.5 0.9-0.7 2.2-1.2 1.4-0.5 3.3-0.5 2.1 0 3.5 0.5 1.5 0.5 2.3 1.4 0.9 0.9 1.3 2 0.4 1.2 0.4 2.5v10.3q0 0.4-0.3 0.6-0.2 0.2-0.5 0.2h-2.7q-0.4 0-0.6-0.2-0.2-0.2-0.2-0.6v-1.3q-0.4 0.6-1.1 1.2-0.8 0.6-1.8 0.9-1.1 0.4-2.5 0.4zm1.1-3.2q1.2 0 2.1-0.5 1-0.5 1.5-1.5 0.6-1.1 0.6-2.6v-0.7l-3.3 0.5q-2 0.3-2.9 0.9-1 0.7-1 1.7 0 0.7 0.5 1.2 0.4 0.5 1.1 0.8 0.7 0.2 1.4 0.2z"/>
		<path id="Layer" class="s0" d="m502.2 178.1q-3 0-5.2-1.1-2.1-1.1-3.2-3.1-1.1-2-1.3-4.8 0-1.4 0-2.9 0-1.6 0-3 0.2-2.8 1.3-4.8 1.1-2 3.3-3.1 2.1-1 5.1-1 2.3 0 4.1 0.6 1.7 0.5 3 1.6 1.2 1 1.9 2.4 0.7 1.4 0.8 3 0 0.3-0.2 0.5-0.2 0.2-0.5 0.2h-3.2q-0.3 0-0.6-0.2-0.2-0.1-0.3-0.6-0.5-2.2-1.8-2.9-1.3-0.8-3.2-0.8-2.2 0-3.5 1.2-1.4 1.2-1.5 4.1-0.1 2.7 0 5.5 0.1 2.9 1.5 4.1 1.3 1.3 3.5 1.3 1.9 0 3.2-0.9 1.3-0.8 1.8-2.9 0.1-0.5 0.3-0.6 0.3-0.2 0.6-0.2h3.2q0.3 0 0.5 0.2 0.2 0.2 0.2 0.5-0.1 1.6-0.8 3-0.6 1.4-1.9 2.4-1.3 1.1-3 1.7-1.8 0.6-4.1 0.6z"/>
		<path id="Layer" class="s0" d="m523.9 178.1q-2.1 0-3.5-1-1.5-0.9-2.3-2.5-0.8-1.7-0.8-4v-9.3q0-0.3 0.3-0.5 0.2-0.3 0.5-0.3h2.9q0.4 0 0.6 0.3 0.2 0.2 0.2 0.5v9.1q0 4.1 3.6 4.1 1.7 0 2.7-1.1 1-1.1 1-3v-9.1q0-0.3 0.3-0.5 0.2-0.3 0.5-0.3h2.9q0.4 0 0.6 0.3 0.2 0.2 0.2 0.5v15.6q0 0.4-0.2 0.6-0.2 0.2-0.6 0.2h-2.6q-0.4 0-0.6-0.2-0.2-0.2-0.2-0.6v-1.3q-0.9 1.1-2.2 1.8-1.4 0.7-3.3 0.7z"/>
		<path id="Layer" class="s0" d="m546.5 178.1q-2 0-3.4-0.5-1.4-0.5-2.3-1.2-0.9-0.7-1.3-1.4-0.5-0.6-0.5-1.1 0-0.4 0.2-0.6 0.3-0.2 0.6-0.2h2.6q0.1 0 0.2 0 0.1 0.1 0.3 0.2 0.4 0.4 0.9 0.8 0.5 0.4 1.1 0.7 0.7 0.2 1.7 0.2 1.3 0 2.1-0.5 0.9-0.5 0.9-1.4 0-0.7-0.4-1.2-0.3-0.4-1.4-0.7-1-0.4-2.9-0.8-1.8-0.4-3-1.1-1.3-0.6-1.9-1.6-0.6-1-0.6-2.3 0-1.3 0.8-2.5 0.8-1.2 2.3-1.9 1.6-0.8 3.8-0.8 1.8 0 3.1 0.5 1.4 0.4 2.2 1.1 0.9 0.6 1.4 1.3 0.4 0.7 0.5 1.2 0 0.3-0.2 0.5-0.3 0.3-0.5 0.3h-2.5q-0.2 0-0.3-0.1-0.1-0.1-0.3-0.2-0.3-0.3-0.7-0.7-0.5-0.4-1.1-0.6-0.6-0.3-1.6-0.3-1.2 0-1.9 0.6-0.7 0.5-0.7 1.3 0 0.6 0.3 1 0.4 0.4 1.3 0.8 1 0.3 2.9 0.7 2.2 0.4 3.5 1.2 1.3 0.8 1.9 1.8 0.5 1 0.5 2.2 0 1.5-0.8 2.7-0.9 1.2-2.6 1.9-1.7 0.7-4.2 0.7z"/>
		<path id="Layer" class="s0" d="m567.2 177.7q-2 0-3.3-0.7-1.4-0.7-2-2-0.7-1.4-0.7-3.5v-7.5h-2.6q-0.3 0-0.6-0.2-0.2-0.2-0.2-0.6v-1.9q0-0.3 0.2-0.5 0.3-0.3 0.6-0.3h2.6v-5.4q0-0.4 0.2-0.6 0.2-0.2 0.6-0.2h2.7q0.3 0 0.5 0.2 0.3 0.2 0.3 0.6v5.4h4.1q0.3 0 0.6 0.3 0.2 0.2 0.2 0.5v1.9q0 0.4-0.2 0.6-0.3 0.2-0.6 0.2h-4.1v7.2q0 1.4 0.4 2.1 0.5 0.8 1.7 0.8h2.3q0.3 0 0.5 0.2 0.3 0.3 0.3 0.6v2q0 0.4-0.3 0.6-0.2 0.2-0.5 0.2c0 0-2.7 0-2.7 0z"/>
		<path id="Layer" fill-rule="evenodd" class="s0" d="m583.2 178.1q-2.6 0-4.4-1-1.8-0.9-2.8-2.6-0.9-1.7-1.1-3.9 0-0.6 0-1.5 0-0.8 0-1.4 0.2-2.3 1.1-4 1-1.6 2.8-2.6 1.8-0.9 4.4-0.9 2.6 0 4.4 0.9 1.8 1 2.7 2.6 1 1.7 1.1 4 0.1 0.6 0.1 1.4 0 0.9-0.1 1.5-0.1 2.2-1 3.9-1 1.7-2.8 2.6-1.8 1-4.4 1zm0-3.3q1.7 0 2.7-1.1 1-1.1 1.1-3.3 0-0.5 0-1.3 0-0.8 0-1.3-0.1-2.1-1.1-3.2-1-1.1-2.7-1.1-1.8 0-2.7 1.1-1 1.1-1.1 3.2 0 0.5 0 1.3 0 0.8 0 1.3 0.1 2.2 1.1 3.3 0.9 1.1 2.7 1.1z"/>
		<path id="Layer" class="s0" d="m597.9 177.7q-0.3 0-0.5-0.2-0.3-0.2-0.3-0.6v-15.6q0-0.3 0.3-0.5 0.2-0.3 0.5-0.3h2.6q0.3 0 0.6 0.3 0.2 0.2 0.2 0.5v1.2q0.7-1 1.9-1.6 1.1-0.7 2.7-0.7 3.8-0.1 5.3 2.9 0.8-1.3 2.2-2.1 1.4-0.8 3.2-0.8 1.7 0 3.1 0.8 1.4 0.8 2.2 2.4 0.8 1.6 0.8 4v9.5q0 0.4-0.2 0.6-0.2 0.2-0.6 0.2h-2.7q-0.3 0-0.5-0.2-0.3-0.2-0.3-0.6v-9.2q0-1.5-0.4-2.4-0.4-0.8-1.2-1.2-0.7-0.4-1.6-0.4-0.7 0-1.4 0.4-0.8 0.4-1.2 1.2-0.5 0.9-0.5 2.4v9.2q0 0.4-0.2 0.6-0.2 0.2-0.6 0.2h-2.7q-0.3 0-0.5-0.2-0.3-0.2-0.3-0.6v-9.2q0-1.5-0.4-2.4-0.5-0.8-1.2-1.2-0.7-0.4-1.6-0.4-0.7 0-1.5 0.4-0.7 0.4-1.1 1.3-0.5 0.8-0.5 2.3v9.2q0 0.4-0.2 0.6-0.3 0.2-0.6 0.2z"/>
		<path id="Layer" fill-rule="evenodd" class="s0" d="m636.3 178.1q-3.7 0-5.8-2.2-2.2-2.1-2.3-6-0.1-0.3-0.1-0.8 0-0.5 0.1-0.8 0.1-2.5 1.1-4.3 1-1.8 2.8-2.8 1.8-1 4.2-1 2.7 0 4.5 1.1 1.8 1.1 2.7 3.1 0.9 2 0.9 4.5v0.7q0 0.4-0.2 0.6-0.2 0.2-0.6 0.2h-10.9q0 0.2 0 0.3 0 1.1 0.4 2.1 0.4 1 1.2 1.6 0.8 0.6 2 0.6 0.9 0 1.5-0.3 0.6-0.3 1-0.6 0.4-0.4 0.6-0.6 0.3-0.4 0.5-0.5 0.2-0.1 0.5-0.1h2.9q0.3 0 0.5 0.2 0.2 0.2 0.2 0.5 0 0.5-0.6 1.3-0.5 0.7-1.4 1.5-1 0.7-2.4 1.2-1.5 0.5-3.3 0.5zm-3.6-10.5h7.3v-0.1q0-1.2-0.5-2.2-0.4-1-1.2-1.5-0.9-0.6-2-0.6-1.2 0-2 0.6-0.8 0.5-1.2 1.5-0.4 1-0.4 2.2c0 0 0 0.1 0 0.1z"/>
		<path id="Layer" class="s0" d="m650.7 177.7q-0.3 0-0.5-0.2-0.3-0.2-0.3-0.6v-15.5q0-0.4 0.3-0.6 0.2-0.3 0.5-0.3h2.7q0.3 0 0.6 0.3 0.2 0.2 0.2 0.6v1.3q0.8-1 2-1.6 1.2-0.6 2.8-0.6h1.3q0.4 0 0.6 0.3 0.2 0.2 0.2 0.5v2.4q0 0.3-0.2 0.6-0.2 0.2-0.6 0.2h-2.5q-1.6 0-2.5 0.9-0.9 0.9-0.9 2.4v9.1q0 0.4-0.2 0.6-0.2 0.2-0.6 0.2z"/>
		<path id="Layer" class="s0" d="m683.8 178.1q-3 0-5.2-1.1-2.1-1.1-3.2-3.1-1.1-2-1.3-4.8 0-1.4 0-2.9 0-1.6 0-3 0.2-2.8 1.3-4.8 1.1-2 3.3-3.1 2.1-1 5.1-1 2.3 0 4.1 0.6 1.8 0.5 3 1.6 1.3 1 2 2.4 0.7 1.4 0.7 3 0 0.3-0.2 0.5-0.2 0.2-0.5 0.2h-3.1q-0.4 0-0.6-0.2-0.3-0.1-0.4-0.6-0.5-2.2-1.8-2.9-1.3-0.8-3.2-0.8-2.2 0-3.5 1.2-1.3 1.2-1.4 4.1-0.1 2.7 0 5.5 0.1 2.9 1.4 4.1 1.3 1.3 3.5 1.3 1.9 0 3.2-0.9 1.3-0.8 1.8-2.9 0.1-0.5 0.4-0.6 0.2-0.2 0.6-0.2h3.1q0.3 0 0.5 0.2 0.2 0.2 0.2 0.5 0 1.6-0.7 3-0.7 1.4-2 2.4-1.2 1.1-3 1.7-1.8 0.6-4.1 0.6z"/>
		<path id="Layer" fill-rule="evenodd" class="s0" d="m704.1 178.1q-1.7 0-3.1-0.7-1.4-0.7-2.2-1.8-0.8-1.2-0.8-2.6 0-2.3 1.9-3.7 1.8-1.4 4.9-1.8l4.5-0.7v-0.7q0-1.4-0.7-2.1-0.7-0.8-2.4-0.8-1.2 0-1.9 0.5-0.7 0.5-1.1 1.3-0.3 0.4-0.8 0.4h-2.6q-0.3 0-0.5-0.2-0.2-0.2-0.2-0.5 0-0.6 0.4-1.3 0.5-0.8 1.3-1.5 0.8-0.7 2.2-1.2 1.3-0.5 3.3-0.5 2 0 3.5 0.5 1.4 0.5 2.3 1.4 0.8 0.9 1.2 2 0.4 1.2 0.4 2.5v10.3q0 0.4-0.2 0.6-0.2 0.2-0.6 0.2h-2.6q-0.4 0-0.6-0.2-0.2-0.2-0.2-0.6v-1.3q-0.5 0.6-1.2 1.2-0.7 0.6-1.8 0.9-1 0.4-2.4 0.4zm1.1-3.2q1.2 0 2.1-0.5 0.9-0.5 1.5-1.5 0.5-1.1 0.5-2.6v-0.7l-3.3 0.5q-1.9 0.3-2.9 0.9-0.9 0.7-0.9 1.7 0 0.7 0.4 1.2 0.5 0.5 1.2 0.8 0.6 0.2 1.4 0.2z"/>
		<path id="Layer" class="s0" d="m720.7 177.7q-0.3 0-0.5-0.2-0.3-0.2-0.3-0.6v-15.5q0-0.4 0.3-0.6 0.2-0.3 0.5-0.3h2.7q0.3 0 0.6 0.3 0.2 0.2 0.2 0.6v1.3q0.8-1 2-1.6 1.2-0.6 2.8-0.6h1.3q0.4 0 0.6 0.3 0.2 0.2 0.2 0.5v2.4q0 0.3-0.2 0.6-0.2 0.2-0.6 0.2h-2.5q-1.6 0-2.5 0.9-0.9 0.9-0.9 2.4v9.1q0 0.4-0.2 0.6-0.2 0.2-0.6 0.2z"/>
		<path id="Layer" fill-rule="evenodd" class="s0" d="m742.9 178.1q-3.7 0-5.9-2.2-2.1-2.1-2.3-6 0-0.3 0-0.8 0-0.5 0-0.8 0.2-2.5 1.2-4.3 1-1.8 2.8-2.8 1.7-1 4.1-1 2.7 0 4.5 1.1 1.9 1.1 2.8 3.1 0.9 2 0.9 4.5v0.7q0 0.4-0.2 0.6-0.3 0.2-0.6 0.2h-11q0 0.2 0 0.3 0 1.1 0.5 2.1 0.4 1 1.2 1.6 0.8 0.6 1.9 0.6 0.9 0 1.6-0.3 0.6-0.3 1-0.6 0.4-0.4 0.6-0.6 0.3-0.4 0.4-0.5 0.2-0.1 0.6-0.1h2.8q0.3 0 0.6 0.2 0.2 0.2 0.1 0.5 0 0.5-0.5 1.3-0.5 0.7-1.5 1.5-0.9 0.7-2.4 1.2-1.4 0.5-3.2 0.5zm-3.7-10.5h7.3v-0.1q0-1.2-0.4-2.2-0.4-1-1.3-1.5-0.8-0.6-1.9-0.6-1.2 0-2 0.6-0.9 0.5-1.3 1.5-0.4 1-0.4 2.2c0 0 0 0.1 0 0.1z"/>
	</g>
	<g id="Layer">
		<path id="Layer" class="s1" d="m249 121.9c-0.9-0.8-1.5-1.7-1.8-2.8l-21.2-69.7-0.3-1.7c0-1.6 1.3-3 3-3h2.8c0.9 0 1.7 0.2 2.3 0.7 0.5 0.4 0.9 0.9 1 1.6l18.5 62.5 19.7-61.8c0.2-0.8 0.7-1.5 1.3-2.1 0.8-0.6 1.8-0.9 2.7-0.9h3c1 0 2 0.3 2.7 0.9 0.7 0.6 1.2 1.3 1.4 2.1l19.7 61.8 18.4-62.6c0.2-0.6 0.6-1.1 1.1-1.5 0.6-0.5 1.4-0.8 2.2-0.7h2.9c0.8 0 1.5 0.3 2.1 0.9 0.6 0.5 0.9 1.3 0.9 2.1l-0.3 1.6-21.2 69.8c-0.3 1-0.9 2-1.8 2.8-0.8 0.7-1.9 1-3 0.9h-2.5q-4.1 0-5.2-3.7l-18.9-59.3-18.9 59.3q-1.1 3.7-5.1 3.7h-2.6c-1 0.1-2.1-0.2-3-0.9"/>
		<path id="Layer" fill-rule="evenodd" class="s1" d="m344.8 115q-8.8-9.4-10-25.2l-0.1-6 0.1-6q1.2-15.7 9.9-25.1 8.6-9.5 23-9.5 15.7 0 24.4 10.4 8.8 10.3 8.8 28.4v2.2c0 1-0.3 1.8-1 2.5-0.6 0.6-1.5 0.9-2.4 0.9h-53.5v1.4c0.2 4.6 1.3 9 3.2 13.2 1.9 3.9 4.7 7.2 8.2 9.7 3.6 2.5 7.9 3.8 12.3 3.7q8.3 0 13.5-3.2 5.2-3.2 7.4-6.5 0.9-1.3 2-2.3c0.8-0.4 1.7-0.5 2.5-0.4h2.4c0.8-0.1 1.6 0.2 2.3 0.7 0.6 0.5 0.9 1.2 0.9 2q0 3.1-4 7.5-4 4.5-11.1 7.7c-5 2.2-10.4 3.3-15.9 3.2q-14.2 0-22.9-9.4m47-35.8v-0.6q0-11.6-6.6-19.1-6.5-7.5-17.5-7.5-10.9 0-17.3 7.5-6.4 7.5-6.4 19.1v0.6z"/>
		<path id="Layer" class="s1" d="m433.6 121.9c-0.9-0.8-1.5-1.8-1.9-2.8l-28.1-69.7-0.3-1.4c0-1.8 1.5-3.3 3.3-3.3h12.2c1.8-0.1 3.4 1.1 3.9 2.9l20 52.7 19.9-52.7q0.5-1.2 1.4-2c0.7-0.6 1.6-0.9 2.6-0.9h12.3c0.8 0 1.6 0.4 2.2 1 0.6 0.6 0.9 1.4 0.9 2.3q0 0.7-0.2 1.4l-28.2 69.7c-0.4 1.1-1.1 2-2 2.8-1 0.7-2.2 1.1-3.4 1h-11.1c-1.2 0.1-2.4-0.3-3.4-1"/>
		<path id="Layer" fill-rule="evenodd" class="s1" d="m491.1 115.3q-9.6-9.2-10.3-24.9l-0.2-6.6 0.2-6.6q0.7-15.7 10.5-24.8 9.8-9.2 27-9.2 17.3 0 27.1 9.2 9.7 9.1 10.5 24.8 0.1 1.8 0.1 6.6 0 4.8-0.1 6.6-0.8 15.8-10.4 24.9-9.6 9.1-27.2 9.1-17.6 0-27.2-9.1zm39.5-10.9q4.4-5 4.8-14.8 0.2-1.5 0.2-5.8 0-4.4-0.2-5.9-0.4-9.7-4.8-14.8-4.3-5-12.3-5-7.9 0-12.3 5-4.3 5.1-4.8 14.8l-0.1 5.9 0.1 5.8q0.5 9.8 4.8 14.8 4.4 5.1 12.3 5.1 8 0 12.3-5.1z"/>
		<path id="Layer" class="s1" d="m570.9 115.3q-8-9.2-8-24.8v-42.2c0-2 1.6-3.6 3.6-3.6q0 0 0 0h13.2c1.9-0.1 3.5 1.3 3.6 3.2q0.1 0.2 0 0.4v41.3q0 18.7 16.4 18.7 7.8 0 12.4-5 4.6-4.9 4.6-13.7v-41.3c0-2 1.6-3.6 3.5-3.6q0.1 0 0.1 0h13.2c1.8-0.1 3.5 1.3 3.6 3.1q0 0.3 0 0.5v70.9c0 1-0.3 1.9-1 2.6-0.7 0.7-1.6 1.1-2.6 1h-12.2c-2 0-3.6-1.6-3.6-3.5q0-0.1 0-0.1v-6.1q-8.4 11.2-25.1 11.2-13.8 0-21.7-9.1"/>
		<path id="Layer" class="s1" d="m655.3 115.2q-9.8-9.2-10.4-25.4l-0.2-6 0.2-6q0.6-16.3 10.4-25.4 9.9-9.2 26.4-9.2 11.7 0 19.9 4.2 8.2 4.2 12.2 10.3 4 6.1 4.3 11.5c0.1 1-0.3 1.9-1 2.6-0.7 0.6-1.7 1-2.7 1h-13.2c-0.8 0.1-1.7-0.2-2.3-0.7q-1.1-1-1.6-2.3-2.3-5.9-5.9-8.4-3.7-2.6-9.4-2.5-7.7 0-12 4.9-4.4 4.9-4.7 14.7l-0.1 5.6 0.1 4.9q0.6 19.7 16.7 19.7 5.8 0 9.4-2.6 3.6-2.5 5.9-8.4c0.3-0.9 0.9-1.7 1.6-2.3 0.6-0.5 1.5-0.7 2.3-0.7h13.2c1 0 1.9 0.4 2.6 1.1 0.8 0.6 1.1 1.5 1 2.5q-0.3 5.3-4.2 11.3-3.9 6-12 10.3-8.1 4.4-20.1 4.4-16.5 0-26.4-9.2"/>
		<path id="Layer" class="s1" d="m725.8 121.8c-0.7-0.7-1-1.6-1-2.6v-99.5c-0.1-0.9 0.3-1.9 1-2.6 0.7-0.6 1.6-1 2.6-1h13.3c1.9-0.1 3.5 1.3 3.6 3.1q0.1 0.3 0 0.5v34.3q9.1-10.8 24.4-10.8 13.8 0 22 9.1 8.3 9.1 8.3 24.7v42.3c0 0.9-0.3 1.8-1 2.5-0.7 0.7-1.6 1.1-2.6 1.1h-13.5c-2 0-3.6-1.6-3.6-3.6q0 0 0 0v-41.4q0-8.9-4.3-13.7-4.3-4.9-12.4-5-8 0-12.6 5-4.6 5-4.6 13.7v41.3c0 0.9-0.4 1.9-1 2.6-0.7 0.7-1.7 1.1-2.7 1h-13.3c-1 0-1.9-0.4-2.6-1"/>
	</g>
	<g id="Layer">
		<path id="Layer" fill-rule="evenodd" class="s0" d="m199.2 90.7c5.4 6.3 5.4 15.6 0 22-3.8 4.4-5 10.6-3.2 16.2 2.6 7.9-1 16.5-8.4 20.3-5.3 2.7-8.7 7.9-9.2 13.7-0.7 8.3-7.2 14.9-15.5 15.6-5.9 0.4-11.1 3.9-13.8 9.2-3.7 7.4-12.4 11-20.3 8.4-5.6-1.8-11.7-0.6-16.2 3.2-6.3 5.4-15.6 5.4-21.9 0-4.5-3.8-10.6-5-16.2-3.2-8 2.6-16.6-1-20.4-8.4-2.6-5.3-7.8-8.8-13.7-9.2-8.3-0.7-14.9-7.3-15.5-15.6-0.5-5.8-4-11-9.2-13.7-7.4-3.8-11-12.4-8.4-20.3 1.8-5.6 0.6-11.8-3.3-16.2-5.4-6.4-5.4-15.7 0-22 3.9-4.5 5.1-10.7 3.3-16.3-2.6-7.9 0.9-16.5 8.4-20.3 5.2-2.7 8.7-7.9 9.2-13.7 0.6-8.3 7.2-14.9 15.5-15.6 5.9-0.5 11.1-3.9 13.7-9.2 3.8-7.4 12.4-11 20.3-8.4 5.6 1.8 11.8 0.6 16.2-3.2 6.4-5.4 15.7-5.4 22 0 4.5 3.8 10.6 5 16.2 3.2 7.9-2.6 16.5 1 20.3 8.4 2.7 5.3 7.9 8.7 13.7 9.2 8.3 0.7 14.9 7.3 15.6 15.6 0.4 5.8 3.9 11 9.1 13.7 7.5 3.8 11 12.4 8.4 20.3-1.8 5.6-0.5 11.8 3.3 16.2m-11.9 11q0 0 0 0c0-47.4-38.4-85.7-85.7-85.7-47.3 0-85.7 38.4-85.7 85.7 0 47.4 38.4 85.8 85.7 85.8 47.3-0.1 85.6-38.4 85.7-85.8z"/>
		<path id="Layer" fill-rule="evenodd" class="s0" d="m172.5 62.9q-0.1 0-0.1 0m0.1 0c17.4 32.6 10.5 72.9-16.9 97.7-32.9 29.8-83.7 27.3-113.5-5.6-29.8-32.9-27.3-83.8 5.6-113.6 32.9-29.8 83.7-27.3 113.5 5.6h-2.3c-1.7 0-3.3 0.5-4.7 1.6-1.2 0.9-2.3 2.1-3.1 3.5l-39.4 68.7-4.7-22c0-0.3-0.2-0.6-0.5-0.8-0.6-0.3-1.3-0.1-1.7 0.4l-13.2 21.5c-0.4 0.8-0.6 1.7-0.4 2.6l0.3 1.3 3.5 16.4c0.3 1.8 1.2 3.5 2.6 4.9q1.8 1.7 5.8 1.7h9c2.3 0.1 4.6-0.5 6.5-1.7 1.8-1.3 3.2-3 4.3-4.9zm-103.8 82.1c1.8-1.3 3.3-3 4.4-4.9l38.5-65.3q0.5-1.1 0.7-2.4c0.3-1.4-0.1-3-1-4.1-0.9-1.1-2.2-1.8-3.6-1.8h-14.5c-1.7 0-3.4 0.6-4.7 1.6-1.2 1-2.3 2.2-3.1 3.6l-24.2 51.1-6.7-31.9q-1-5-6.1-5h-6.4c-1.6 0-3.2 0.6-4.4 1.7-1.3 1-2.2 2.5-2.5 4.1l0.1 2.4 9.7 46c0.3 1.9 1.2 3.6 2.6 4.9q1.8 1.8 5.8 1.8h9q4 0 6.5-1.8z"/>
	</g>
</svg>