<svg version="1.2" xmlns="http://www.w3.org/2000/svg" viewBox="0 0 230 59" width="230" height="59">
	<title>Wevouch logo new-01-svg</title>
	<style>
		.s0 { fill: #00c2d3 } 
		.s1 { fill: #ffffff } 
	</style>
	<g id="Layer">
		<path id="Layer" fill-rule="evenodd" class="s0" d="m78.9 51.4q-0.1 0-0.1-0.1-0.1 0-0.1-0.1 0 0 0-0.1l2.3-6.2q0.1 0 0.1-0.1 0.1-0.1 0.3-0.1h1q0.1 0 0.2 0.1 0.1 0.1 0.1 0.1l2.3 6.2q0 0.1 0 0.1 0 0.1 0 0.1-0.1 0.1-0.2 0.1h-0.8q-0.1 0-0.2-0.1 0 0-0.1-0.1l-0.4-1.1h-2.8l-0.5 1.1q0 0.1-0.1 0.1 0 0.1-0.2 0.1zm1.9-2.4h2.2l-1.1-3z"/>
		<path id="Layer" fill-rule="evenodd" class="s0" d="m87.8 51.5q-0.5 0-0.9-0.2-0.4-0.2-0.6-0.5-0.3-0.4-0.3-0.8 0-0.6 0.6-1 0.5-0.4 1.4-0.6l1.3-0.2v-0.2q0-0.4-0.2-0.6-0.2-0.2-0.7-0.2-0.3 0-0.5 0.1-0.3 0.2-0.4 0.4 0 0.1-0.2 0.1h-0.7q-0.1 0-0.2 0 0-0.1 0-0.2 0-0.1 0.1-0.3 0.1-0.3 0.4-0.5 0.2-0.2 0.6-0.3 0.4-0.2 0.9-0.2 0.6 0 1 0.2 0.5 0.1 0.7 0.4 0.2 0.2 0.4 0.6 0.1 0.3 0.1 0.7v3q0 0.1-0.1 0.1-0.1 0.1-0.2 0.1h-0.7q-0.1 0-0.2-0.1-0.1 0-0.1-0.1v-0.4q-0.1 0.2-0.3 0.3-0.2 0.2-0.5 0.3-0.3 0.1-0.7 0.1zm0.3-0.9q0.4 0 0.6-0.2 0.3-0.1 0.5-0.4 0.1-0.3 0.1-0.8v-0.2l-0.9 0.2q-0.6 0.1-0.9 0.3-0.3 0.2-0.3 0.4 0 0.2 0.2 0.4 0.1 0.1 0.3 0.2 0.2 0.1 0.4 0.1z"/>
		<path id="Layer" fill-rule="evenodd" class="s0" d="m92.6 53.2q-0.1 0-0.2-0.1 0 0 0-0.1v-6.3q0-0.1 0-0.2 0.1-0.1 0.2-0.1h0.7q0.1 0 0.2 0.1 0.1 0.1 0.1 0.2v0.3q0.2-0.3 0.6-0.5 0.3-0.2 0.9-0.2 0.5 0 0.9 0.2 0.3 0.2 0.6 0.5 0.2 0.3 0.4 0.7 0.1 0.4 0.1 0.9 0 0.1 0 0.3 0 0.2 0 0.4 0 0.4-0.1 0.8-0.2 0.4-0.4 0.8-0.3 0.3-0.6 0.4-0.4 0.2-0.9 0.2-0.5 0-0.9-0.2-0.3-0.2-0.6-0.5v2.2q0 0.1 0 0.1-0.1 0.1-0.2 0.1c0 0-0.8 0-0.8 0zm2.1-2.7q0.4 0 0.7-0.2 0.2-0.2 0.3-0.5 0.1-0.3 0.1-0.6 0-0.3 0-0.6 0-0.3-0.1-0.6-0.1-0.3-0.3-0.5-0.3-0.1-0.7-0.1-0.3 0-0.6 0.1-0.2 0.2-0.3 0.5-0.2 0.3-0.2 0.6 0 0.2 0 0.3 0 0.2 0 0.4 0 0.3 0.2 0.6 0.1 0.2 0.3 0.4 0.3 0.2 0.6 0.2z"/>
		<path id="Layer" class="s0" d="m99 51.4q-0.1 0-0.2-0.1 0 0 0-0.1v-6.4q0-0.1 0-0.1 0.1-0.1 0.2-0.1h0.8q0.1 0 0.1 0.1 0.1 0 0.1 0.1v3.3l1.6-1.5q0.1-0.1 0.1-0.1 0.1-0.1 0.2-0.1h0.9q0.1 0 0.2 0.1 0 0 0 0.1 0 0.1 0 0.1 0 0.1-0.1 0.1l-1.9 1.9 2.2 2.3q0.1 0.1 0.1 0.2 0 0.1-0.1 0.1-0.1 0.1-0.1 0.1h-0.9q-0.2 0-0.2 0-0.1-0.1-0.2-0.2l-1.8-1.9v1.9q0 0.1-0.1 0.1 0 0.1-0.1 0.1z"/>
		<path id="Layer" fill-rule="evenodd" class="s0" d="m105.9 51.5q-0.5 0-0.9-0.2-0.4-0.2-0.6-0.5-0.3-0.4-0.3-0.8 0-0.6 0.6-1 0.5-0.4 1.4-0.6l1.3-0.2v-0.2q0-0.4-0.2-0.6-0.2-0.2-0.7-0.2-0.3 0-0.6 0.1-0.2 0.2-0.3 0.4 0 0.1-0.2 0.1h-0.7q-0.1 0-0.2 0 0-0.1 0-0.2 0-0.1 0.1-0.3 0.1-0.3 0.3-0.5 0.3-0.2 0.7-0.3 0.4-0.2 0.9-0.2 0.6 0 1 0.2 0.4 0.1 0.7 0.4 0.2 0.2 0.3 0.6 0.2 0.3 0.2 0.7v3q0 0.1-0.1 0.1-0.1 0.1-0.2 0.1h-0.7q-0.1 0-0.2-0.1-0.1 0-0.1-0.1v-0.4q-0.1 0.2-0.3 0.3-0.2 0.2-0.5 0.3-0.3 0.1-0.7 0.1zm0.3-0.9q0.3 0 0.6-0.2 0.3-0.1 0.4-0.4 0.2-0.3 0.2-0.8v-0.2l-1 0.2q-0.5 0.1-0.8 0.3-0.3 0.2-0.3 0.4 0 0.2 0.2 0.4 0.1 0.1 0.3 0.2 0.2 0.1 0.4 0.1z"/>
		<path id="Layer" fill-rule="evenodd" class="s0" d="m112.6 51.4q0 0-0.1-0.1-0.1 0-0.1-0.1 0 0 0.1-0.1l2.3-6.2q0 0 0.1-0.1 0-0.1 0.2-0.1h1q0.2 0 0.2 0.1 0.1 0.1 0.2 0.1l2.2 6.2q0 0.1 0 0.1 0 0.1 0 0.1-0.1 0.1-0.1 0.1h-0.9q-0.1 0-0.2-0.1 0 0 0-0.1l-0.5-1.1h-2.8l-0.5 1.1q0 0.1 0 0.1-0.1 0.1-0.2 0.1zm1.9-2.4h2.1l-1.1-3z"/>
		<path id="Layer" fill-rule="evenodd" class="s0" d="m120.3 53.2q-0.1 0-0.1-0.1-0.1 0-0.1-0.1v-6.3q0-0.1 0.1-0.2 0-0.1 0.1-0.1h0.8q0.1 0 0.1 0.1 0.1 0.1 0.1 0.2v0.3q0.2-0.3 0.6-0.5 0.4-0.2 0.9-0.2 0.5 0 0.9 0.2 0.4 0.2 0.6 0.5 0.3 0.3 0.4 0.7 0.1 0.4 0.1 0.9 0.1 0.1 0.1 0.3 0 0.2-0.1 0.4 0 0.4-0.1 0.8-0.1 0.4-0.4 0.8-0.2 0.3-0.6 0.4-0.4 0.2-0.9 0.2-0.5 0-0.9-0.2-0.3-0.2-0.5-0.5v2.2q0 0.1-0.1 0.1-0.1 0.1-0.2 0.1c0 0-0.8 0-0.8 0zm2.2-2.7q0.4 0 0.6-0.2 0.2-0.2 0.3-0.5 0.1-0.3 0.2-0.6 0-0.3 0-0.6-0.1-0.3-0.2-0.6-0.1-0.3-0.3-0.5-0.2-0.1-0.6-0.1-0.4 0-0.7 0.1-0.2 0.2-0.3 0.5-0.1 0.3-0.1 0.6 0 0.2 0 0.3 0 0.2 0 0.4 0 0.3 0.1 0.6 0.1 0.2 0.4 0.4 0.2 0.2 0.6 0.2z"/>
		<path id="Layer" class="s0" d="m126.7 51.4q-0.1 0-0.1-0.1-0.1 0-0.1-0.1v-4.5q0-0.1 0.1-0.2 0-0.1 0.1-0.1h0.8q0.1 0 0.2 0.1 0 0.1 0 0.2v0.4q0.3-0.4 0.7-0.6 0.3-0.2 0.9-0.2 0.6 0 1 0.3 0.4 0.3 0.7 0.7 0.2 0.5 0.2 1.2v2.7q0 0.1-0.1 0.1 0 0.1-0.1 0.1h-0.9q-0.1 0-0.1-0.1-0.1 0-0.1-0.1v-2.7q0-0.5-0.3-0.8-0.2-0.3-0.7-0.3-0.5 0-0.8 0.3-0.3 0.3-0.3 0.8v2.7q0 0.1-0.1 0.1-0.1 0.1-0.2 0.1c0 0-0.8 0-0.8 0z"/>
		<path id="Layer" fill-rule="evenodd" class="s0" d="m134.4 51.5q-0.5 0-0.9-0.2-0.4-0.2-0.6-0.5-0.2-0.4-0.2-0.8 0-0.6 0.5-1 0.5-0.4 1.4-0.6l1.3-0.2v-0.2q0-0.4-0.2-0.6-0.2-0.2-0.7-0.2-0.3 0-0.5 0.1-0.2 0.2-0.3 0.4-0.1 0.1-0.3 0.1h-0.7q-0.1 0-0.2 0 0-0.1 0-0.2 0-0.1 0.1-0.3 0.1-0.3 0.4-0.5 0.2-0.2 0.6-0.3 0.4-0.2 0.9-0.2 0.6 0 1.1 0.2 0.4 0.1 0.6 0.4 0.3 0.2 0.4 0.6 0.1 0.3 0.1 0.7v3q0 0.1-0.1 0.1 0 0.1-0.1 0.1h-0.8q-0.1 0-0.2-0.1 0 0 0-0.1v-0.4q-0.2 0.2-0.4 0.3-0.2 0.2-0.5 0.3-0.3 0.1-0.7 0.1zm0.3-0.9q0.4 0 0.6-0.2 0.3-0.1 0.5-0.4 0.1-0.3 0.1-0.8v-0.2l-0.9 0.2q-0.6 0.1-0.9 0.3-0.2 0.2-0.2 0.4 0 0.2 0.1 0.4 0.1 0.1 0.3 0.2 0.2 0.1 0.4 0.1z"/>
		<path id="Layer" class="s0" d="m144.4 51.5q-0.9 0-1.5-0.3-0.6-0.3-0.9-0.9-0.4-0.6-0.4-1.4 0-0.4 0-0.8 0-0.5 0-0.9 0-0.8 0.4-1.4 0.3-0.6 0.9-0.9 0.6-0.3 1.5-0.3 0.6 0 1.1 0.2 0.6 0.2 0.9 0.5 0.4 0.3 0.6 0.7 0.2 0.4 0.2 0.8 0 0.1-0.1 0.2 0 0-0.1 0h-0.9q-0.1 0-0.2 0 0-0.1-0.1-0.2-0.1-0.6-0.5-0.9-0.4-0.2-0.9-0.2-0.7 0-1 0.4-0.4 0.3-0.4 1.2-0.1 0.7 0 1.6 0 0.8 0.4 1.1 0.3 0.4 1 0.4 0.5 0 0.9-0.2 0.4-0.3 0.5-0.9 0.1-0.1 0.1-0.2 0.1 0 0.2 0h0.9q0.1 0 0.1 0 0.1 0.1 0.1 0.2 0 0.4-0.2 0.8-0.2 0.4-0.6 0.8-0.3 0.3-0.9 0.4-0.5 0.2-1.1 0.2z"/>
		<path id="Layer" class="s0" d="m150.6 51.5q-0.6 0-1-0.3-0.4-0.2-0.6-0.7-0.3-0.5-0.3-1.2v-2.6q0-0.1 0.1-0.2 0.1-0.1 0.2-0.1h0.8q0.1 0 0.2 0.1 0 0.1 0 0.2v2.6q0 1.2 1.1 1.2 0.4 0 0.7-0.3 0.3-0.4 0.3-0.9v-2.6q0-0.1 0.1-0.2 0.1-0.1 0.2-0.1h0.8q0.1 0 0.2 0.1 0 0.1 0 0.2v4.5q0 0.1 0 0.1-0.1 0.1-0.2 0.1h-0.8q-0.1 0-0.1-0.1-0.1 0-0.1-0.1v-0.4q-0.3 0.3-0.6 0.5-0.4 0.2-1 0.2z"/>
		<path id="Layer" class="s0" d="m157.1 51.5q-0.6 0-1-0.1-0.4-0.2-0.6-0.4-0.3-0.2-0.4-0.4-0.1-0.2-0.1-0.3 0-0.1 0-0.2 0.1 0 0.2 0h0.7q0.1 0 0.1 0 0 0 0.1 0 0.1 0.1 0.2 0.2 0.2 0.2 0.4 0.2 0.2 0.1 0.4 0.1 0.4 0 0.7-0.1 0.2-0.2 0.2-0.4 0-0.2-0.1-0.4-0.1-0.1-0.4-0.2-0.3-0.1-0.8-0.2-0.6-0.1-0.9-0.3-0.4-0.2-0.5-0.5-0.2-0.3-0.2-0.7 0-0.3 0.2-0.7 0.2-0.3 0.7-0.5 0.4-0.3 1.1-0.3 0.5 0 0.9 0.2 0.3 0.1 0.6 0.3 0.2 0.2 0.4 0.4 0.1 0.2 0.1 0.3 0 0.1 0 0.2-0.1 0-0.2 0h-0.7q0 0-0.1 0 0 0 0 0-0.2-0.1-0.3-0.2-0.1-0.1-0.3-0.2-0.2-0.1-0.4-0.1-0.4 0-0.6 0.2-0.2 0.1-0.2 0.4 0 0.1 0.1 0.2 0.1 0.2 0.4 0.3 0.3 0.1 0.8 0.2 0.7 0.1 1 0.3 0.4 0.2 0.6 0.5 0.1 0.3 0.1 0.7 0 0.4-0.2 0.8-0.3 0.3-0.8 0.5-0.5 0.2-1.2 0.2z"/>
		<path id="Layer" class="s0" d="m163.1 51.4q-0.6 0-1-0.2-0.4-0.2-0.6-0.6-0.2-0.4-0.2-1v-2.2h-0.7q-0.1 0-0.2 0 0-0.1 0-0.2v-0.5q0-0.1 0-0.2 0.1-0.1 0.2-0.1h0.7v-1.6q0-0.1 0.1-0.1 0.1-0.1 0.2-0.1h0.7q0.1 0 0.2 0.1 0.1 0 0.1 0.1v1.6h1.2q0.1 0 0.1 0.1 0.1 0.1 0.1 0.2v0.5q0 0.1-0.1 0.2 0 0-0.1 0h-1.2v2.1q0 0.4 0.1 0.6 0.1 0.2 0.5 0.2h0.6q0.1 0 0.2 0.1 0.1 0.1 0.1 0.2v0.6q0 0.1-0.1 0.1-0.1 0.1-0.2 0.1c0 0-0.7 0-0.7 0z"/>
		<path id="Layer" fill-rule="evenodd" class="s0" d="m167.7 51.5q-0.8 0-1.3-0.3-0.5-0.2-0.8-0.7-0.3-0.5-0.3-1.2 0-0.1 0-0.4 0-0.2 0-0.4 0-0.7 0.3-1.1 0.3-0.5 0.8-0.8 0.5-0.3 1.3-0.3 0.7 0 1.2 0.3 0.5 0.3 0.8 0.8 0.3 0.4 0.3 1.1 0.1 0.2 0.1 0.4 0 0.3-0.1 0.4 0 0.7-0.3 1.2-0.2 0.5-0.8 0.7-0.5 0.3-1.2 0.3zm0-1q0.5 0 0.7-0.3 0.3-0.3 0.4-0.9 0-0.2 0-0.4 0-0.2 0-0.4-0.1-0.6-0.4-0.9-0.2-0.3-0.7-0.3-0.5 0-0.8 0.3-0.3 0.3-0.3 0.9 0 0.2 0 0.4 0 0.2 0 0.4 0 0.6 0.3 0.9 0.3 0.3 0.8 0.3z"/>
		<path id="Layer" class="s0" d="m171.9 51.4q-0.1 0-0.2-0.1 0 0 0-0.1v-4.5q0-0.1 0-0.2 0.1-0.1 0.2-0.1h0.7q0.1 0 0.2 0.1 0.1 0.1 0.1 0.2v0.3q0.2-0.3 0.5-0.5 0.3-0.2 0.8-0.2 1.1 0 1.5 0.9 0.2-0.4 0.7-0.6 0.4-0.3 0.9-0.3 0.5 0 0.9 0.3 0.4 0.2 0.6 0.7 0.2 0.4 0.2 1.1v2.8q0 0.1 0 0.1-0.1 0.1-0.2 0.1h-0.8q-0.1 0-0.1-0.1-0.1 0-0.1-0.1v-2.7q0-0.4-0.1-0.7-0.1-0.2-0.4-0.3-0.2-0.1-0.4-0.1-0.2 0-0.4 0.1-0.2 0.1-0.4 0.3-0.1 0.3-0.1 0.7v2.7q0 0.1-0.1 0.1 0 0.1-0.1 0.1h-0.8q-0.1 0-0.2-0.1 0 0 0-0.1v-2.7q0-0.4-0.2-0.7-0.1-0.2-0.3-0.3-0.2-0.1-0.5-0.1-0.2 0-0.4 0.1-0.2 0.1-0.3 0.3-0.2 0.3-0.2 0.7v2.7q0 0.1 0 0.1-0.1 0.1-0.2 0.1z"/>
		<path id="Layer" fill-rule="evenodd" class="s0" d="m182.9 51.5q-1 0-1.6-0.6-0.7-0.6-0.7-1.8 0-0.1 0-0.2 0-0.1 0-0.2 0-0.8 0.3-1.3 0.3-0.5 0.8-0.8 0.5-0.3 1.2-0.3 0.8 0 1.3 0.4 0.5 0.3 0.8 0.8 0.3 0.6 0.3 1.4v0.2q0 0.1-0.1 0.1-0.1 0.1-0.2 0.1h-3.1q0 0 0 0.1 0 0.3 0.1 0.6 0.1 0.3 0.4 0.4 0.2 0.2 0.5 0.2 0.3 0 0.5-0.1 0.2-0.1 0.3-0.2 0.1-0.1 0.1-0.1 0.1-0.1 0.2-0.2 0 0 0.1 0h0.8q0.1 0 0.2 0.1 0.1 0 0 0.1 0 0.2-0.1 0.4-0.2 0.2-0.4 0.4-0.3 0.2-0.7 0.4-0.4 0.1-1 0.1zm-1-3h2.1q0-0.4-0.1-0.7-0.2-0.3-0.4-0.4-0.2-0.2-0.6-0.2-0.3 0-0.5 0.2-0.3 0.1-0.4 0.4-0.1 0.3-0.1 0.7 0 0 0 0z"/>
		<path id="Layer" class="s0" d="m187.1 51.4q-0.1 0-0.2-0.1 0 0 0-0.1v-4.5q0-0.1 0-0.2 0.1-0.1 0.2-0.1h0.8q0 0 0.1 0.1 0.1 0.1 0.1 0.2v0.4q0.2-0.3 0.6-0.5 0.3-0.2 0.8-0.2h0.3q0.1 0 0.2 0.1 0.1 0.1 0.1 0.2v0.6q0 0.1-0.1 0.2-0.1 0.1-0.2 0.1h-0.7q-0.5 0-0.7 0.2-0.3 0.3-0.3 0.7v2.7q0 0.1 0 0.1-0.1 0.1-0.2 0.1z"/>
		<path id="Layer" class="s0" d="m196.6 51.5q-0.9 0-1.5-0.3-0.6-0.3-0.9-0.9-0.3-0.6-0.4-1.4 0-0.4 0-0.8 0-0.5 0-0.9 0.1-0.8 0.4-1.4 0.3-0.6 0.9-0.9 0.6-0.3 1.5-0.3 0.7 0 1.2 0.2 0.5 0.2 0.8 0.5 0.4 0.3 0.6 0.7 0.2 0.4 0.2 0.8 0 0.1 0 0.2-0.1 0-0.2 0h-0.9q-0.1 0-0.2 0 0-0.1-0.1-0.2-0.1-0.6-0.5-0.9-0.4-0.2-0.9-0.2-0.6 0-1 0.4-0.4 0.3-0.4 1.2-0.1 0.7 0 1.6 0 0.8 0.4 1.1 0.4 0.4 1 0.4 0.5 0 0.9-0.2 0.4-0.3 0.5-0.9 0.1-0.1 0.1-0.2 0.1 0 0.2 0h0.9q0.1 0 0.2 0 0 0.1 0 0.2 0 0.4-0.2 0.8-0.2 0.4-0.6 0.8-0.3 0.3-0.8 0.4-0.5 0.2-1.2 0.2z"/>
		<path id="Layer" fill-rule="evenodd" class="s0" d="m202.4 51.5q-0.5 0-0.9-0.2-0.4-0.2-0.6-0.5-0.2-0.4-0.2-0.8 0-0.6 0.5-1 0.5-0.4 1.4-0.6l1.3-0.2v-0.2q0-0.4-0.2-0.6-0.2-0.2-0.7-0.2-0.3 0-0.5 0.1-0.2 0.2-0.3 0.4-0.1 0.1-0.3 0.1h-0.7q-0.1 0-0.2 0 0-0.1 0-0.2 0-0.1 0.1-0.3 0.1-0.3 0.4-0.5 0.2-0.2 0.6-0.3 0.4-0.2 1-0.2 0.5 0 1 0.2 0.4 0.1 0.6 0.4 0.3 0.2 0.4 0.6 0.1 0.3 0.1 0.7v3q0 0.1-0.1 0.1 0 0.1-0.1 0.1h-0.8q-0.1 0-0.2-0.1 0 0 0-0.1v-0.4q-0.2 0.2-0.4 0.3-0.2 0.2-0.5 0.3-0.3 0.1-0.7 0.1zm0.3-0.9q0.4 0 0.6-0.2 0.3-0.1 0.5-0.4 0.1-0.3 0.1-0.8v-0.2l-0.9 0.2q-0.6 0.1-0.9 0.3-0.2 0.2-0.2 0.4 0 0.2 0.1 0.4 0.1 0.1 0.3 0.2 0.2 0.1 0.4 0.1z"/>
		<path id="Layer" class="s0" d="m207.2 51.4q-0.1 0-0.2-0.1 0 0 0-0.1v-4.5q0-0.1 0-0.2 0.1-0.1 0.2-0.1h0.8q0.1 0 0.1 0.1 0.1 0.1 0.1 0.2v0.4q0.2-0.3 0.6-0.5 0.3-0.2 0.8-0.2h0.4q0.1 0 0.1 0.1 0.1 0.1 0.1 0.2v0.6q0 0.1-0.1 0.2 0 0.1-0.1 0.1h-0.8q-0.4 0-0.7 0.2-0.2 0.3-0.2 0.7v2.7q0 0.1-0.1 0.1-0.1 0.1-0.2 0.1z"/>
		<path id="Layer" fill-rule="evenodd" class="s0" d="m213.6 51.5q-1.1 0-1.7-0.6-0.6-0.6-0.7-1.8 0-0.1 0-0.2 0-0.1 0-0.2 0.1-0.8 0.4-1.3 0.3-0.5 0.8-0.8 0.5-0.3 1.2-0.3 0.7 0 1.3 0.4 0.5 0.3 0.7 0.8 0.3 0.6 0.3 1.4v0.2q0 0.1-0.1 0.1 0 0.1-0.1 0.1h-3.2q0 0 0 0.1 0 0.3 0.2 0.6 0.1 0.3 0.3 0.4 0.2 0.2 0.6 0.2 0.2 0 0.4-0.1 0.2-0.1 0.3-0.2 0.1-0.1 0.2-0.1 0-0.1 0.1-0.2 0.1 0 0.2 0h0.8q0.1 0 0.1 0.1 0.1 0 0.1 0.1 0 0.2-0.2 0.4-0.1 0.2-0.4 0.4-0.3 0.2-0.7 0.4-0.4 0.1-0.9 0.1zm-1.1-3h2.1q0-0.4-0.1-0.7-0.1-0.3-0.4-0.4-0.2-0.2-0.5-0.2-0.4 0-0.6 0.2-0.2 0.1-0.4 0.4-0.1 0.3-0.1 0.7 0 0 0 0z"/>
	</g>
	<g id="Layer">
		<path id="Layer" class="s1" d="m71.6 35.3q-0.4-0.4-0.5-0.9l-6.1-20.1-0.1-0.5c0-0.5 0.4-0.9 0.8-0.9h0.9q0.3 0 0.6 0.2 0.2 0.2 0.3 0.5l5.3 18.1 5.7-17.9q0.1-0.4 0.4-0.6 0.3-0.3 0.7-0.3h0.9q0.4 0 0.8 0.3 0.3 0.2 0.4 0.6l5.6 17.9 5.3-18.1q0.1-0.3 0.3-0.5 0.3-0.2 0.7-0.2h0.8q0.4 0 0.6 0.3 0.3 0.2 0.3 0.6l-0.1 0.5-6.1 20.1q-0.2 0.5-0.5 0.9-0.4 0.2-0.9 0.2h-0.7q-1.2 0-1.5-1.1l-5.4-17.1-5.5 17.1q-0.3 1.1-1.4 1.1h-0.8q-0.4 0-0.8-0.2"/>
		<path id="Layer" fill-rule="evenodd" class="s1" d="m99.1 33.2q-2.5-2.7-2.8-7.2l-0.1-1.8 0.1-1.7q0.3-4.5 2.8-7.3 2.5-2.7 6.6-2.7 4.5 0 7 3 2.6 3 2.6 8.2v0.7c0 0.2-0.1 0.5-0.3 0.7q-0.3 0.2-0.7 0.2h-15.4v0.4c0 1.4 0.4 2.7 0.9 3.8 0.6 1.2 1.4 2.2 2.4 2.9 1 0.7 2.3 1.1 3.5 1q2.4 0 3.9-0.9 1.5-0.9 2.1-1.9 0.3-0.4 0.6-0.6 0.3-0.2 0.7-0.2h0.7q0.4 0 0.7 0.3c0.1 0.1 0.2 0.3 0.2 0.5q0 0.9-1.1 2.2-1.2 1.3-3.2 2.2c-1.4 0.7-3 1-4.6 1q-4.1 0-6.6-2.8m13.5-10.3v-0.2q0-3.3-1.8-5.5-1.9-2.2-5.1-2.2-3.1 0-5 2.2-1.8 2.2-1.8 5.5v0.2z"/>
		<path id="Layer" class="s1" d="m124.7 35.2q-0.4-0.3-0.6-0.8l-8.1-20.1v-0.4c0-0.5 0.4-1 0.9-1h3.5c0.5 0 1 0.4 1.1 0.9l5.8 15.2 5.7-15.2q0.1-0.4 0.4-0.6 0.3-0.3 0.7-0.3h3.6q0.3 0 0.6 0.3 0.3 0.3 0.3 0.7 0 0.2-0.1 0.4l-8.1 20.1q-0.2 0.5-0.6 0.9-0.4 0.3-0.9 0.2h-3.2q-0.6 0.1-1-0.2"/>
		<path id="Layer" fill-rule="evenodd" class="s1" d="m141.2 33.3q-2.8-2.6-3-7.2v-1.9-1.9q0.2-4.5 3-7.2 2.9-2.6 7.8-2.6 5 0 7.8 2.6 2.8 2.7 3 7.2 0.1 0.5 0.1 1.9 0 1.4-0.1 1.9-0.2 4.6-3 7.2-2.7 2.7-7.8 2.7-5 0-7.8-2.7zm11.4-3.1q1.2-1.4 1.3-4.3 0.1-0.4 0.1-1.7 0-1.2-0.1-1.7-0.1-2.8-1.3-4.2-1.3-1.5-3.6-1.5-2.3 0-3.5 1.5-1.3 1.4-1.4 4.2v1.7 1.7q0.1 2.9 1.4 4.3 1.2 1.5 3.5 1.5 2.3 0 3.6-1.5z"/>
		<path id="Layer" class="s1" d="m164.1 33.3q-2.3-2.6-2.3-7.1v-12.2c0-0.6 0.5-1.1 1.1-1.1q0 0 0 0h3.8c0.5 0 1 0.4 1 0.9q0 0.1 0 0.2v11.9q0 5.4 4.7 5.4 2.3 0 3.6-1.4 1.3-1.4 1.3-4v-11.9c0-0.6 0.4-1.1 1-1.1q0 0 0 0h3.8c0.6 0 1 0.4 1.1 0.9q0 0.1 0 0.2v20.5q0 0.4-0.3 0.7c-0.2 0.2-0.5 0.3-0.8 0.3h-3.5c-0.5 0-1-0.4-1-1q0 0 0 0v-1.8q-2.4 3.3-7.2 3.3-4 0-6.3-2.7"/>
		<path id="Layer" class="s1" d="m188.4 33.3q-2.8-2.6-3-7.3v-1.8-1.7q0.2-4.7 3-7.4 2.8-2.6 7.6-2.6 3.4 0 5.7 1.2 2.4 1.2 3.5 3 1.2 1.7 1.2 3.3c0.1 0.3 0 0.6-0.2 0.8-0.2 0.1-0.5 0.3-0.8 0.3h-3.8q-0.4 0-0.7-0.2-0.3-0.3-0.4-0.7-0.7-1.7-1.7-2.5-1.1-0.7-2.7-0.7-2.2 0-3.5 1.4-1.2 1.5-1.3 4.3l-0.1 1.6 0.1 1.4q0.1 5.7 4.8 5.7 1.7 0 2.7-0.7 1-0.7 1.7-2.4 0.1-0.4 0.4-0.7 0.3-0.2 0.7-0.2h3.8q0.4 0 0.7 0.3c0.3 0.2 0.4 0.5 0.3 0.7q-0.1 1.6-1.2 3.3-1.1 1.7-3.4 3-2.4 1.3-5.8 1.3-4.8 0-7.6-2.7"/>
		<path id="Layer" class="s1" d="m208.7 35.2c-0.2-0.2-0.3-0.4-0.3-0.7v-28.8c0-0.3 0.1-0.6 0.3-0.7q0.3-0.3 0.7-0.3h3.9c0.5-0.1 0.9 0.3 1 0.9q0 0 0 0.1v9.9q2.6-3.1 7-3.1 4 0 6.3 2.6 2.4 2.7 2.4 7.2v12.2q0 0.4-0.3 0.7c-0.2 0.2-0.5 0.3-0.7 0.3h-3.9c-0.6 0-1.1-0.4-1.1-1q0 0 0 0v-12q0-2.5-1.2-3.9-1.2-1.5-3.5-1.5-2.3 0-3.7 1.5-1.3 1.4-1.3 3.9v12q0 0.4-0.3 0.7c-0.2 0.2-0.5 0.3-0.7 0.3h-3.9c-0.3 0-0.5-0.1-0.7-0.3"/>
	</g>
	<g id="Layer">
		<path id="Layer" fill-rule="evenodd" class="s0" d="m57.3 26.2c1.5 1.9 1.5 4.5 0 6.4-1.1 1.3-1.5 3.1-1 4.7 0.8 2.3-0.2 4.8-2.4 5.8-1.5 0.8-2.5 2.3-2.6 4-0.2 2.4-2.1 4.3-4.5 4.5-1.7 0.2-3.2 1.2-3.9 2.7-1.1 2.1-3.6 3.2-5.9 2.4-1.6-0.5-3.3-0.2-4.6 0.9-1.8 1.6-4.5 1.6-6.3 0-1.3-1.1-3.1-1.4-4.7-0.9-2.3 0.8-4.8-0.3-5.8-2.4-0.8-1.5-2.3-2.5-4-2.7-2.4-0.2-4.3-2.1-4.5-4.5-0.1-1.7-1.1-3.2-2.6-4-2.1-1-3.1-3.5-2.4-5.8 0.5-1.6 0.2-3.4-0.9-4.7-1.6-1.9-1.6-4.5 0-6.4 1.1-1.3 1.4-3 0.9-4.7-0.8-2.3 0.3-4.8 2.4-5.9 1.5-0.7 2.5-2.2 2.6-3.9 0.2-2.4 2.1-4.3 4.5-4.5 1.7-0.2 3.2-1.2 4-2.7 1-2.1 3.5-3.2 5.8-2.4 1.6 0.5 3.4 0.2 4.7-1 1.8-1.5 4.5-1.5 6.3 0 1.3 1.2 3 1.5 4.6 1 2.3-0.8 4.8 0.3 5.9 2.4 0.7 1.5 2.2 2.5 3.9 2.7 2.4 0.2 4.3 2.1 4.5 4.5 0.1 1.7 1.1 3.2 2.6 3.9 2.2 1.1 3.2 3.6 2.4 5.9-0.5 1.6-0.1 3.4 1 4.7m-3.5 3.2q0 0 0 0c0-13.7-11-24.8-24.6-24.8-13.6 0-24.6 11.1-24.6 24.8 0 13.7 11 24.8 24.6 24.8 13.6 0 24.6-11.1 24.6-24.8z"/>
		<path id="Layer" fill-rule="evenodd" class="s0" d="m49.6 18.2q0 0 0 0m0 0c5 9.4 3 21.1-4.9 28.2-9.4 8.7-24 7.9-32.6-1.6-8.6-9.5-7.8-24.2 1.6-32.8 9.5-8.7 24.1-7.9 32.6 1.6h-0.6c-0.5 0-1 0.1-1.4 0.5q-0.5 0.4-0.9 1l-11.3 19.8-1.3-6.3q-0.1-0.2-0.2-0.3c-0.2-0.1-0.4 0-0.5 0.2l-3.8 6.2q-0.2 0.3-0.1 0.7l0.1 0.4 1 4.7c0.1 0.6 0.4 1.1 0.8 1.5q0.5 0.5 1.6 0.5h2.6c0.7 0 1.3-0.2 1.9-0.5q0.8-0.6 1.2-1.5zm-29.8 23.8q0.8-0.6 1.2-1.4l11.1-18.9q0.2-0.3 0.2-0.7c0.1-0.4 0-0.9-0.3-1.2-0.2-0.3-0.6-0.5-1-0.5h-4.2c-0.5 0-0.9 0.2-1.3 0.5q-0.6 0.4-0.9 1l-7 14.8-1.9-9.2q-0.3-1.5-1.8-1.5h-1.8c-0.5 0-0.9 0.2-1.3 0.5-0.3 0.3-0.6 0.7-0.7 1.2v0.7l2.8 13.3c0.1 0.5 0.4 1 0.8 1.4q0.5 0.5 1.6 0.5h2.6q1.2 0 1.9-0.5z"/>
	</g>
</svg>