<svg width="229" height="198" viewBox="0 0 229 198" fill="none" xmlns="http://www.w3.org/2000/svg">
<path d="M157.952 48.1056C156.975 46.9616 156.308 45.586 156.014 44.1104C155.72 42.6348 155.81 41.1086 156.275 39.6777C156.922 37.6862 156.837 35.5293 156.036 33.5947C155.234 31.6602 153.769 30.0749 151.904 29.1239C150.564 28.441 149.422 27.4261 148.586 26.176C147.75 24.926 147.249 23.4827 147.13 21.9837C146.965 19.8963 146.061 17.9362 144.58 16.4557C143.099 14.9752 141.139 14.0714 139.052 13.9068C137.553 13.7874 136.109 13.286 134.859 12.4502C133.609 11.6145 132.594 10.4723 131.911 9.13272C130.961 7.26691 129.375 5.80156 127.441 5.00021C125.506 4.19887 123.349 4.11413 121.358 4.76124C119.926 5.2257 118.4 5.31543 116.924 5.02189C115.449 4.72835 114.073 4.06131 112.928 3.08452C111.336 1.72465 109.311 0.977539 107.217 0.977539C105.123 0.977539 103.098 1.72465 101.505 3.08452C100.361 4.0612 98.9852 4.72818 97.5095 5.02172C96.0339 5.31526 94.5075 5.22558 93.0764 4.76124C91.0849 4.11413 88.9277 4.19887 86.9931 5.00021C85.0584 5.80156 83.4732 7.26691 82.5225 9.13272C81.8395 10.4723 80.8246 11.6145 79.5746 12.4502C78.3246 13.286 76.8813 13.7874 75.3824 13.9068C73.2951 14.0714 71.335 14.9753 69.8545 16.4558C68.3739 17.9363 67.4701 19.8964 67.3054 21.9837C67.1862 23.4827 66.6848 24.926 65.849 26.176C65.0132 27.4261 63.871 28.441 62.5314 29.1239C60.6633 30.0723 59.1951 31.6563 58.391 33.5908C57.5869 35.5254 57.4997 37.6834 58.1451 39.6765C58.61 41.1074 58.6999 42.6336 58.4063 44.1092C58.1127 45.5848 57.4455 46.9603 56.4684 48.1043C55.1085 49.6968 54.3613 51.7223 54.3613 53.8164C54.3613 55.9106 55.1085 57.9361 56.4684 59.5286C57.4457 60.6727 58.1131 62.0485 58.4067 63.5243C58.7002 65.0001 58.6102 66.5266 58.1451 67.9576C57.4983 69.9495 57.5833 72.1068 58.3848 74.0416C59.1864 75.9764 60.6519 77.5618 62.5178 78.5127C63.8575 79.1956 64.9997 80.2105 65.8355 81.4605C66.6713 82.7105 67.1727 84.1539 67.2919 85.6529C67.4565 87.7402 68.3604 89.7003 69.8409 91.1808C71.3215 92.6613 73.2816 93.5652 75.3689 93.7298C76.8678 93.849 78.3111 94.3504 79.5611 95.1862C80.8111 96.022 81.8261 97.1642 82.509 98.5039C83.4597 100.37 85.0449 101.835 86.9796 102.636C88.9142 103.438 91.0713 103.522 93.0629 102.875C94.494 102.411 96.0203 102.321 97.496 102.615C98.9717 102.908 100.348 103.575 101.492 104.552C103.084 105.912 105.109 106.659 107.203 106.659C109.297 106.659 111.323 105.912 112.915 104.552C114.059 103.575 115.435 102.908 116.911 102.614C118.386 102.321 119.913 102.411 121.344 102.875C123.335 103.522 125.493 103.438 127.427 102.636C129.362 101.835 130.947 100.37 131.898 98.5039C132.581 97.1642 133.596 96.0219 134.846 95.1861C136.096 94.3503 137.539 93.8489 139.038 93.7298C141.125 93.5652 143.086 92.6614 144.566 91.1809C146.047 89.7004 146.951 87.7403 147.116 85.6529C147.235 84.1539 147.737 82.7105 148.573 81.4605C149.408 80.2105 150.551 79.1956 151.89 78.5127C153.756 77.5616 155.221 75.9761 156.023 74.0413C156.824 72.1065 156.909 69.9493 156.262 67.9576C155.797 66.5267 155.707 65.0005 156.001 63.5249C156.294 62.0494 156.961 60.6738 157.938 59.5298C159.3 57.9387 160.049 55.9142 160.051 53.8202C160.054 51.7261 159.31 49.6999 157.952 48.1056ZM107.21 98.382C98.3962 98.382 89.7802 95.7683 82.4516 90.8716C75.123 85.9748 69.4111 79.0148 66.0381 70.8717C62.6652 62.7286 61.7826 53.7682 63.5021 45.1236C65.2217 36.479 69.466 28.5384 75.6984 22.3059C81.9309 16.0735 89.8714 11.8292 98.5161 10.1096C107.161 8.39012 116.121 9.27265 124.264 12.6456C132.407 16.0186 139.367 21.7305 144.264 29.0591C149.161 36.3876 151.775 45.0037 151.775 53.8177C151.761 65.6326 147.062 76.9597 138.708 85.3142C130.353 93.6687 119.026 98.3683 107.211 98.382H107.21Z" fill="#00C0C9"/>
<path d="M144.136 33.7096L118.53 73.842C117.964 74.8461 117.195 75.7208 116.271 76.41C115.276 77.0541 114.104 77.3697 112.92 77.3124H108.223C107.133 77.4092 106.048 77.0865 105.188 76.41C104.495 75.7051 104.024 74.8122 103.834 73.842L102.023 65.3256L101.88 64.6559C101.781 64.1939 101.864 63.7117 102.112 63.3091L108.974 52.1459C109.039 52.0401 109.134 51.9562 109.247 51.9051C109.36 51.8539 109.486 51.8378 109.608 51.8589C109.731 51.88 109.844 51.9372 109.934 52.0232C110.023 52.1093 110.085 52.2202 110.111 52.3416L112.558 63.7523L133.033 28.0516C133.466 27.3569 134.02 26.7456 134.669 26.2469C135.36 25.6943 136.221 25.3996 137.106 25.4135H138.283C131.14 17.5395 121.262 12.6875 110.664 11.8474C100.066 11.0073 89.5473 14.2424 81.2532 20.8927C72.9591 27.5429 67.5148 37.1072 66.0312 47.6341C64.5476 58.1611 67.1364 68.8575 73.2694 77.5411C79.4025 86.2246 88.6176 92.241 99.0348 94.3626C109.452 96.4842 120.286 94.5513 129.327 88.9582C138.368 83.3651 144.934 74.5333 147.685 64.2646C150.437 53.9959 149.167 43.0642 144.135 33.6997L144.136 33.7096ZM90.1642 76.4137C89.1691 77.0578 87.9971 77.3734 86.8132 77.3161H82.1155C81.026 77.4128 79.9406 77.09 79.0809 76.4137C78.3878 75.7088 77.9169 74.8159 77.7268 73.8457L72.7004 49.9632L72.6437 48.7137C72.7986 47.8661 73.253 47.1023 73.924 46.5618C74.5584 45.9892 75.3802 45.6683 76.2347 45.6594H79.5845C80.3507 45.5948 81.1114 45.836 81.7004 46.3303C82.2895 46.8245 82.6591 47.5318 82.7286 48.2976L86.2371 64.8455L98.7939 38.2817C99.2269 37.5871 99.7811 36.9759 100.43 36.477C101.121 35.9243 101.983 35.6296 102.867 35.6436H110.42C110.778 35.6403 111.131 35.7202 111.453 35.8767C111.775 36.0333 112.056 36.2624 112.274 36.5459C112.518 36.842 112.691 37.1894 112.782 37.562C112.872 37.9347 112.877 38.323 112.796 38.6978C112.734 39.1286 112.613 39.549 112.438 39.9473L92.4232 73.8457C91.8576 74.85 91.0881 75.7247 90.1642 76.4137Z" fill="#00C0C9"/>
<path d="M9.30151 169.535C8.97414 169.221 8.72855 168.831 8.58611 168.4L0.175846 140.722L0.0585938 140.065C0.066041 139.751 0.193988 139.452 0.416078 139.23C0.638169 139.008 0.937312 138.88 1.25131 138.873H2.38418C2.70858 138.861 3.02634 138.967 3.27911 139.17C3.48221 139.316 3.62974 139.527 3.69772 139.767L11.0337 164.582L18.8482 140.07C18.9345 139.742 19.1225 139.45 19.3854 139.235C19.6878 138.99 20.0697 138.865 20.4584 138.883H21.6513C22.0404 138.865 22.4225 138.99 22.7254 139.235C22.9875 139.45 23.1751 139.742 23.2615 140.07L31.0759 164.582L38.4118 139.767C38.48 139.527 38.6276 139.316 38.8306 139.17C39.0835 138.967 39.401 138.861 39.7254 138.873H40.8572C41.1713 138.88 41.4705 139.008 41.6927 139.23C41.915 139.452 42.0433 139.751 42.0511 140.065L41.9338 140.722L33.5236 168.4C33.3807 168.831 33.1352 169.22 32.8082 169.535C32.4656 169.791 32.0424 169.916 31.6155 169.886H30.6021C30.1401 169.929 29.6786 169.8 29.3048 169.525C28.931 169.25 28.6707 168.848 28.5732 168.395L21.059 144.894L13.5435 168.395C13.446 168.848 13.1859 169.25 12.8124 169.525C12.4388 169.8 11.9776 169.928 11.5157 169.886H10.5024C10.0727 169.918 9.64616 169.793 9.30151 169.535Z" fill="white"/>
<path d="M47.3577 166.76C44.9317 163.984 43.541 160.453 43.4218 156.768L43.3608 154.383L43.4218 151.997C43.5518 148.329 44.9299 144.814 47.3284 142.035C48.4917 140.784 49.913 139.8 51.4939 139.152C53.0749 138.504 54.7776 138.207 56.4846 138.282C58.3066 138.188 60.1263 138.509 61.8057 139.222C63.4852 139.935 64.9803 141.021 66.1779 142.398C68.5039 145.141 69.667 148.899 69.667 153.672V154.567C69.6747 154.744 69.6441 154.921 69.5773 155.086C69.5106 155.251 69.4092 155.399 69.28 155.521C69.0094 155.762 68.6564 155.888 68.2949 155.873H47.0598V156.47C47.1242 158.28 47.5611 160.056 48.343 161.689C49.0701 163.243 50.1904 164.58 51.5929 165.568C53.03 166.555 54.7412 167.066 56.4846 167.028C58.3487 167.109 60.1981 166.665 61.8221 165.746C62.9723 165.091 63.9772 164.208 64.7753 163.152C64.9998 162.817 65.2706 162.516 65.5797 162.257C65.886 162.111 66.2256 162.049 66.5637 162.077H67.5185C67.8428 162.066 68.1603 162.172 68.4133 162.375C68.5285 162.469 68.6208 162.587 68.6828 162.722C68.7449 162.856 68.775 163.004 68.771 163.152C68.6143 164.311 68.0546 165.377 67.1901 166.165C65.9515 167.467 64.4596 168.502 62.806 169.207C60.816 170.086 58.6588 170.524 56.4834 170.489C54.784 170.558 53.0896 170.26 51.5151 169.617C49.9406 168.974 48.5228 168 47.3577 166.76ZM66.0278 152.533V152.299C66.1332 149.539 65.2085 146.839 63.4335 144.723C62.5721 143.738 61.5007 142.958 60.2981 142.442C59.0954 141.926 57.7922 141.686 56.4846 141.74C55.1849 141.681 53.8891 141.92 52.6952 142.437C51.5014 142.954 50.441 143.736 49.5943 144.723C47.8538 146.855 46.9521 149.549 47.0587 152.299V152.533H66.0278Z" fill="white"/>
<path d="M82.6692 169.504C82.3233 169.206 82.0572 168.827 81.8951 168.4L70.7393 140.722L70.6221 140.185C70.6254 139.838 70.7646 139.506 71.0098 139.261C71.2549 139.016 71.5866 138.877 71.9333 138.873H76.7653C77.1135 138.86 77.456 138.965 77.7374 139.17C78.0188 139.376 78.2224 139.671 78.3157 140.006L86.2497 160.943L94.1838 140.006C94.3154 139.71 94.5085 139.446 94.7504 139.23C95.0203 138.989 95.3731 138.863 95.7343 138.878H100.625C100.788 138.881 100.948 138.916 101.097 138.983C101.246 139.049 101.379 139.145 101.489 139.265C101.614 139.385 101.712 139.528 101.779 139.687C101.846 139.846 101.879 140.017 101.878 140.189C101.885 140.37 101.865 140.551 101.818 140.726L90.6033 168.405C90.4406 168.831 90.1741 169.211 89.828 169.508C89.4292 169.793 88.9443 169.93 88.4558 169.897H84.0426C83.5531 169.928 83.0678 169.79 82.6692 169.504Z" fill="white"/>
<path d="M105.515 166.879C104.211 165.587 103.176 164.049 102.47 162.355C101.764 160.661 101.4 158.843 101.4 157.008L101.34 154.384L101.4 151.759C101.407 149.923 101.78 148.108 102.497 146.418C103.214 144.728 104.261 143.198 105.576 141.917C108.157 139.493 111.735 138.281 116.312 138.281C120.89 138.281 124.469 139.493 127.05 141.917C128.365 143.198 129.411 144.728 130.128 146.418C130.845 148.108 131.218 149.924 131.226 151.759C131.266 152.235 131.286 153.11 131.286 154.384C131.286 155.658 131.266 156.532 131.226 157.008C131.225 158.843 130.862 160.661 130.155 162.355C129.448 164.049 128.413 165.587 127.109 166.879C124.565 169.285 120.967 170.488 116.314 170.489C111.661 170.49 108.061 169.287 105.515 166.879ZM121.203 162.584C122.48 160.895 123.152 158.826 123.111 156.708C123.15 156.311 123.171 155.536 123.171 154.383C123.171 153.23 123.15 152.455 123.111 152.057C123.152 149.94 122.48 147.871 121.203 146.181C119.897 144.9 118.141 144.183 116.312 144.183C114.483 144.183 112.726 144.9 111.421 146.181C110.143 147.87 109.471 149.94 109.511 152.057L109.452 154.383L109.511 156.708C109.47 158.826 110.143 160.895 111.421 162.584C112.726 163.865 114.483 164.583 116.312 164.583C118.141 164.583 119.897 163.865 121.203 162.584Z" fill="white"/>
<path d="M137.186 166.879C135.075 164.474 134.019 161.203 134.019 157.066V140.307C134.018 140.118 134.055 139.932 134.126 139.757C134.198 139.583 134.303 139.425 134.436 139.292C134.57 139.159 134.728 139.053 134.902 138.982C135.076 138.91 135.263 138.874 135.451 138.875H140.7C140.892 138.86 141.085 138.888 141.265 138.955C141.445 139.022 141.608 139.127 141.744 139.262C141.88 139.398 141.985 139.562 142.052 139.742C142.119 139.922 142.146 140.115 142.131 140.307V156.709C142.131 161.641 144.299 164.106 148.633 164.105C149.548 164.15 150.461 163.998 151.311 163.658C152.161 163.318 152.928 162.8 153.559 162.137C154.842 160.63 155.493 158.685 155.378 156.709V140.307C155.377 140.118 155.414 139.932 155.486 139.758C155.557 139.583 155.663 139.425 155.796 139.292C155.929 139.159 156.087 139.054 156.261 138.982C156.436 138.91 156.622 138.874 156.81 138.875H162.06C162.251 138.86 162.444 138.888 162.624 138.955C162.804 139.022 162.968 139.127 163.104 139.262C163.24 139.398 163.345 139.562 163.412 139.742C163.479 139.922 163.506 140.115 163.492 140.307V168.454C163.5 168.83 163.361 169.194 163.104 169.469C162.97 169.609 162.807 169.719 162.627 169.791C162.447 169.863 162.254 169.895 162.06 169.886H157.229C157.041 169.887 156.854 169.85 156.68 169.779C156.506 169.707 156.348 169.601 156.215 169.468C156.082 169.335 155.977 169.177 155.905 169.003C155.834 168.829 155.797 168.642 155.798 168.454V166.009C153.571 168.991 150.25 170.482 145.836 170.483C144.217 170.563 142.601 170.281 141.104 169.657C139.608 169.034 138.269 168.085 137.186 166.879Z" fill="white"/>
<path d="M170.74 166.85C169.402 165.537 168.345 163.966 167.633 162.232C166.92 160.498 166.567 158.638 166.595 156.763L166.536 154.378L166.595 151.992C166.567 150.118 166.92 148.258 167.633 146.524C168.345 144.79 169.402 143.219 170.74 141.906C173.625 139.379 177.38 138.075 181.21 138.27C183.94 138.19 186.65 138.763 189.114 139.942C191.052 140.86 192.718 142.268 193.946 144.028C194.903 145.373 195.489 146.947 195.645 148.591C195.668 148.779 195.644 148.969 195.577 149.146C195.509 149.322 195.4 149.48 195.258 149.605C194.978 149.875 194.603 150.025 194.214 150.022H188.965C188.634 150.043 188.307 149.948 188.039 149.753C187.764 149.495 187.55 149.179 187.413 148.828C186.98 147.504 186.159 146.341 185.058 145.488C183.949 144.774 182.647 144.419 181.33 144.473C180.441 144.427 179.552 144.577 178.727 144.912C177.903 145.247 177.162 145.76 176.557 146.413C175.271 148.095 174.617 150.174 174.708 152.289L174.648 154.496L174.708 156.464C174.864 161.674 177.071 164.279 181.33 164.279C182.656 164.341 183.969 163.986 185.083 163.263C186.169 162.403 186.978 161.241 187.408 159.923C187.546 159.572 187.76 159.256 188.035 158.998C188.303 158.804 188.63 158.709 188.96 158.73H194.209C194.599 158.727 194.974 158.877 195.253 159.148C195.395 159.272 195.505 159.43 195.572 159.606C195.64 159.783 195.663 159.973 195.64 160.161C195.482 161.772 194.907 163.315 193.97 164.635C192.752 166.388 191.11 167.804 189.198 168.751C186.718 169.979 183.972 170.573 181.205 170.481C177.378 170.676 173.624 169.374 170.74 166.85Z" fill="white"/>
<path d="M198.751 169.472C198.616 169.341 198.51 169.183 198.438 169.008C198.366 168.834 198.331 168.646 198.335 168.458V128.973C198.326 128.779 198.358 128.585 198.43 128.405C198.502 128.225 198.612 128.062 198.751 127.928C199.026 127.671 199.389 127.532 199.765 127.541H205.074C205.266 127.526 205.458 127.553 205.639 127.62C205.819 127.687 205.983 127.792 206.119 127.928C206.254 128.064 206.36 128.228 206.426 128.408C206.493 128.588 206.52 128.781 206.506 128.973V142.577C207.678 141.166 209.16 140.045 210.836 139.3C212.512 138.555 214.337 138.207 216.17 138.282C217.806 138.211 219.438 138.497 220.952 139.121C222.466 139.744 223.826 140.69 224.938 141.892C227.127 144.299 228.222 147.57 228.222 151.705V168.466C228.23 168.842 228.091 169.206 227.834 169.48C227.7 169.621 227.537 169.731 227.357 169.803C227.176 169.875 226.983 169.907 226.789 169.898H221.421C221.233 169.899 221.046 169.862 220.872 169.791C220.698 169.719 220.54 169.613 220.406 169.48C220.273 169.347 220.168 169.189 220.096 169.015C220.025 168.841 219.988 168.654 219.989 168.466V152.057C220.112 150.091 219.507 148.148 218.289 146.599C217.662 145.932 216.895 145.413 216.044 145.078C215.192 144.743 214.277 144.601 213.364 144.661C212.436 144.615 211.51 144.767 210.646 145.106C209.782 145.445 209 145.965 208.352 146.629C207.052 148.128 206.388 150.076 206.503 152.057V168.46C206.511 168.836 206.372 169.2 206.116 169.475C205.982 169.615 205.819 169.725 205.639 169.797C205.459 169.869 205.265 169.901 205.072 169.892H199.762C199.574 169.895 199.387 169.859 199.213 169.787C199.039 169.715 198.882 169.608 198.751 169.472Z" fill="white"/>
<path d="M26.2309 194.36C26.1315 194.269 26.0693 194.143 26.0561 194.009L24.1702 183.848L24.1538 183.722C24.1533 183.678 24.1622 183.634 24.18 183.593C24.1978 183.553 24.2241 183.517 24.257 183.487C24.2879 183.457 24.3245 183.432 24.3648 183.416C24.405 183.4 24.4481 183.392 24.4916 183.392H25.8872C26.1507 183.392 26.2985 183.498 26.3306 183.709L27.6465 190.889L29.0726 186.245C29.1048 186.131 29.1733 186.03 29.2677 185.959C29.3622 185.888 29.4773 185.849 29.5957 185.849H30.4518C30.5699 185.842 30.6866 185.878 30.7799 185.951C30.8732 186.024 30.9367 186.128 30.9585 186.245L32.401 190.874L33.7169 183.71C33.722 183.662 33.7365 183.616 33.7597 183.574C33.7828 183.532 33.8142 183.495 33.8518 183.465C33.9453 183.411 34.0526 183.386 34.1603 183.393H35.5547C35.5962 183.393 35.6374 183.401 35.6755 183.418C35.7137 183.434 35.748 183.458 35.7764 183.488C35.8072 183.519 35.8315 183.556 35.8479 183.596C35.8642 183.636 35.8722 183.68 35.8714 183.723C35.8726 183.766 35.867 183.809 35.855 183.85L33.9691 194.01C33.9648 194.078 33.947 194.144 33.9166 194.205C33.8862 194.266 33.8439 194.32 33.7921 194.364C33.7404 194.409 33.6803 194.442 33.6154 194.463C33.5505 194.484 33.4822 194.491 33.4144 194.485H32.353C32.2223 194.49 32.0936 194.451 31.9882 194.373C31.8953 194.302 31.8285 194.202 31.7982 194.088L30.0226 188.794L28.2469 194.088C28.2083 194.208 28.1315 194.311 28.0283 194.383C27.9251 194.455 27.8013 194.49 27.6758 194.485H26.6144C26.4754 194.493 26.3384 194.449 26.2309 194.36Z" fill="#00C0C9"/>
<path d="M39.6958 194.321C39.2713 194.125 38.9054 193.822 38.6344 193.441C38.3137 192.981 38.1848 192.415 38.2753 191.861C38.3657 191.308 38.6683 190.812 39.1188 190.479C39.8293 189.984 40.652 189.673 41.5125 189.576L43.6834 189.258V188.925C43.6976 188.736 43.6737 188.546 43.6133 188.366C43.5529 188.187 43.4571 188.021 43.3316 187.88C43.018 187.618 42.6135 187.492 42.2068 187.528C41.9112 187.515 41.6178 187.584 41.3589 187.727C41.1726 187.836 40.9998 187.966 40.844 188.115C40.7166 188.253 40.6321 188.343 40.5907 188.385C40.5802 188.439 40.5509 188.488 40.508 188.523C40.4651 188.558 40.4113 188.576 40.3561 188.575H39.1364C39.0455 188.576 38.9576 188.542 38.8913 188.48C38.8569 188.448 38.83 188.408 38.8124 188.364C38.7948 188.32 38.7869 188.273 38.7892 188.226C38.8272 187.893 38.9618 187.579 39.1763 187.323C39.4811 186.941 39.8761 186.642 40.3256 186.451C40.9252 186.191 41.5747 186.067 42.2279 186.086C43.2116 185.999 44.1904 186.301 44.9547 186.926C45.2412 187.215 45.4651 187.559 45.6122 187.938C45.7593 188.317 45.8266 188.722 45.8097 189.129V194.105C45.812 194.205 45.7749 194.302 45.7065 194.375C45.6711 194.412 45.628 194.441 45.5803 194.461C45.5325 194.48 45.4812 194.489 45.4297 194.486H44.1455C44.0954 194.486 44.0458 194.477 43.9995 194.458C43.9532 194.439 43.9111 194.411 43.8757 194.376C43.8402 194.34 43.8122 194.298 43.793 194.252C43.7739 194.206 43.7641 194.156 43.7643 194.106V193.488C43.5104 193.845 43.1692 194.132 42.7733 194.32C42.2756 194.551 41.7305 194.663 41.1818 194.646C40.6682 194.652 40.1599 194.541 39.6958 194.321ZM43.1427 192.57C43.5409 192.11 43.7404 191.511 43.6974 190.904V190.572L42.113 190.826C41.6234 190.878 41.1507 191.035 40.7267 191.285C40.5882 191.363 40.4722 191.476 40.39 191.612C40.3078 191.748 40.2622 191.903 40.2576 192.062C40.2532 192.22 40.2903 192.376 40.3652 192.515C40.4401 192.654 40.5502 192.771 40.6845 192.855C40.9913 193.051 41.3502 193.15 41.7142 193.14C41.9789 193.149 42.2427 193.104 42.4887 193.005C42.7346 192.907 42.9574 192.759 43.1427 192.57Z" fill="#00C0C9"/>
<path d="M49.5309 194.377C49.4947 194.342 49.4661 194.3 49.447 194.253C49.4278 194.207 49.4184 194.157 49.4195 194.107V186.642C49.419 186.591 49.4285 186.54 49.4476 186.492C49.4668 186.445 49.4951 186.402 49.5309 186.365C49.5648 186.327 49.6064 186.297 49.6529 186.277C49.6995 186.257 49.7499 186.247 49.8007 186.248H51.0849C51.1377 186.246 51.1904 186.254 51.2396 186.273C51.2889 186.293 51.3335 186.322 51.3708 186.359C51.4081 186.397 51.4372 186.441 51.4563 186.491C51.4753 186.54 51.4838 186.593 51.4813 186.646V187.295C51.731 186.96 52.0609 186.693 52.4407 186.519C52.8564 186.333 53.3082 186.241 53.7636 186.249H54.4134C54.4644 186.245 54.5159 186.252 54.564 186.269C54.6121 186.287 54.6558 186.315 54.692 186.351C54.7282 186.388 54.756 186.431 54.7735 186.48C54.791 186.528 54.7978 186.579 54.7933 186.63V187.771C54.7956 187.872 54.758 187.969 54.6889 188.041C54.6535 188.078 54.6105 188.108 54.5627 188.127C54.515 188.146 54.4636 188.155 54.4122 188.153H53.176C52.9611 188.134 52.7448 188.163 52.5422 188.237C52.3395 188.311 52.1555 188.428 52.0029 188.581C51.8503 188.733 51.7329 188.917 51.6588 189.12C51.5847 189.322 51.5558 189.539 51.574 189.753V194.112C51.5748 194.162 51.5654 194.212 51.5462 194.258C51.527 194.304 51.4986 194.346 51.4626 194.381C51.4252 194.418 51.3806 194.447 51.3316 194.467C51.2826 194.486 51.2302 194.495 51.1776 194.493H49.7995C49.7492 194.493 49.6993 194.483 49.6531 194.463C49.6069 194.443 49.5653 194.413 49.5309 194.377Z" fill="#00C0C9"/>
<path d="M57.7248 194.377C57.6886 194.342 57.66 194.3 57.6408 194.254C57.6216 194.207 57.6123 194.157 57.6134 194.107V186.642C57.6124 186.539 57.6525 186.439 57.7248 186.365C57.7585 186.328 57.7999 186.298 57.8463 186.277C57.8926 186.257 57.9428 186.247 57.9933 186.248H59.2776C59.3304 186.245 59.3832 186.254 59.4325 186.273C59.4818 186.292 59.5266 186.321 59.5639 186.359C59.6013 186.396 59.6303 186.441 59.6493 186.491C59.6682 186.54 59.6767 186.593 59.674 186.646V187.295C59.9241 186.961 60.2538 186.694 60.6333 186.519C61.0491 186.333 61.5009 186.241 61.9563 186.249H62.6072C62.6583 186.245 62.7097 186.252 62.7578 186.269C62.8059 186.287 62.8496 186.315 62.8858 186.351C62.922 186.388 62.9499 186.431 62.9674 186.48C62.9849 186.528 62.9916 186.579 62.9872 186.63V187.771C62.9895 187.871 62.9524 187.968 62.884 188.041C62.8485 188.079 62.8055 188.108 62.7577 188.127C62.7099 188.146 62.6586 188.155 62.6072 188.153H61.3699C61.155 188.134 60.9387 188.163 60.7361 188.237C60.5336 188.311 60.3496 188.428 60.1971 188.581C60.0446 188.733 59.9273 188.917 59.8533 189.12C59.7794 189.322 59.7506 189.539 59.769 189.754V194.112C59.7698 194.162 59.7604 194.212 59.7412 194.258C59.7221 194.305 59.6936 194.346 59.6576 194.381C59.6202 194.419 59.5757 194.448 59.5266 194.467C59.4776 194.486 59.4252 194.495 59.3726 194.493H57.9933C57.943 194.493 57.8931 194.483 57.8469 194.463C57.8006 194.443 57.7591 194.414 57.7248 194.377Z" fill="#00C0C9"/>
<path d="M66.5903 194.321C66.1658 194.125 65.7998 193.822 65.5289 193.441C65.2075 192.982 65.0783 192.415 65.1688 191.861C65.2593 191.308 65.5623 190.812 66.0132 190.479C66.7235 189.984 67.5457 189.673 68.4058 189.576L70.5767 189.258V188.925C70.5906 188.736 70.5667 188.546 70.5063 188.367C70.4459 188.187 70.3502 188.022 70.2248 187.88C69.9109 187.618 69.506 187.491 69.0989 187.528C68.8037 187.515 68.5107 187.584 68.2521 187.727C68.0657 187.836 67.8929 187.966 67.7373 188.115C67.6098 188.253 67.5254 188.343 67.484 188.385C67.4724 188.439 67.4429 188.487 67.4002 188.522C67.3575 188.556 67.3043 188.575 67.2494 188.575H66.0285C65.9372 188.577 65.8489 188.542 65.7822 188.48C65.7479 188.448 65.721 188.408 65.7034 188.364C65.6858 188.32 65.6778 188.273 65.6802 188.226C65.7182 187.893 65.8527 187.579 66.0672 187.323C66.3718 186.941 66.7669 186.641 67.2166 186.451C67.8161 186.191 68.4657 186.067 69.1189 186.086C70.1026 185.999 71.0813 186.301 71.8456 186.926C72.1321 187.215 72.356 187.559 72.5031 187.938C72.6502 188.317 72.7175 188.722 72.7006 189.129V194.105C72.7029 194.205 72.6659 194.302 72.5974 194.375C72.562 194.412 72.519 194.441 72.4712 194.461C72.4234 194.48 72.3721 194.489 72.3206 194.486H71.0364C70.9863 194.486 70.9367 194.477 70.8904 194.458C70.8441 194.439 70.802 194.411 70.7666 194.376C70.7312 194.34 70.7031 194.298 70.684 194.252C70.6648 194.206 70.6551 194.156 70.6552 194.106V193.488C70.4009 193.845 70.0598 194.131 69.6642 194.32C69.1666 194.551 68.6214 194.663 68.0727 194.646C67.5603 194.651 67.0533 194.54 66.5903 194.321ZM70.0372 192.57C70.4353 192.11 70.6348 191.511 70.5919 190.904V190.572L69.0074 190.826C68.5179 190.878 68.0452 191.035 67.6212 191.285C67.4827 191.363 67.3667 191.476 67.2845 191.612C67.2023 191.748 67.1567 191.903 67.1521 192.062C67.1476 192.22 67.1847 192.376 67.2596 192.515C67.3346 192.654 67.4446 192.771 67.5789 192.855C67.8858 193.051 68.2446 193.15 68.6087 193.14C68.8735 193.15 69.1375 193.104 69.3837 193.006C69.6299 192.908 69.8529 192.759 70.0383 192.57H70.0372Z" fill="#00C0C9"/>
<path d="M76.4284 194.377C76.3922 194.342 76.3636 194.3 76.3444 194.253C76.3253 194.207 76.3159 194.157 76.317 194.107V186.625C76.3167 186.575 76.3263 186.526 76.3453 186.479C76.3642 186.433 76.3922 186.391 76.4275 186.356C76.4628 186.32 76.5048 186.292 76.5511 186.273C76.5973 186.254 76.6469 186.244 76.697 186.244H77.9953C78.0454 186.244 78.0951 186.254 78.1415 186.273C78.1879 186.292 78.23 186.32 78.2655 186.355C78.301 186.391 78.329 186.433 78.3481 186.479C78.3671 186.526 78.3768 186.575 78.3765 186.625V187.274C78.6915 186.88 79.096 186.567 79.5563 186.36C80.0167 186.153 80.5196 186.059 81.0235 186.086C81.456 186.066 81.8875 186.142 82.2874 186.308C82.6873 186.473 83.0458 186.725 83.3374 187.045C83.9391 187.776 84.2443 188.707 84.1924 189.652V194.109C84.1946 194.209 84.1576 194.306 84.0892 194.379C84.0538 194.416 84.0107 194.446 83.963 194.465C83.9152 194.484 83.8638 194.493 83.8124 194.49H82.4179C82.3679 194.491 82.3183 194.481 82.272 194.462C82.2257 194.443 82.1836 194.415 82.1482 194.38C82.1127 194.344 82.0846 194.302 82.0655 194.256C82.0464 194.21 82.0366 194.16 82.0368 194.11V189.752C82.0699 189.23 81.9091 188.713 81.5853 188.301C81.4191 188.124 81.2158 187.986 80.9898 187.897C80.7639 187.808 80.521 187.77 80.2787 187.787C80.0334 187.774 79.7883 187.814 79.5598 187.904C79.3314 187.994 79.125 188.133 78.9546 188.31C78.6139 188.71 78.4408 189.227 78.4714 189.752V194.11C78.4736 194.21 78.4366 194.307 78.3682 194.38C78.3328 194.417 78.2897 194.447 78.242 194.466C78.1942 194.485 78.1429 194.494 78.0914 194.492H76.697C76.6467 194.492 76.5969 194.482 76.5506 194.462C76.5044 194.442 76.4628 194.413 76.4284 194.377Z" fill="#00C0C9"/>
<path d="M89.2578 193.733C88.7372 193.119 88.4782 192.325 88.5366 191.522V187.924H87.284C87.2333 187.925 87.1828 187.915 87.1363 187.895C87.0897 187.875 87.0481 187.844 87.0143 187.807C86.942 187.732 86.902 187.632 86.9028 187.529V186.626C86.9025 186.576 86.9121 186.526 86.9311 186.48C86.9501 186.433 86.978 186.391 87.0134 186.356C87.0487 186.32 87.0907 186.292 87.137 186.273C87.1832 186.254 87.2328 186.244 87.2828 186.244H88.5354V183.614C88.5331 183.562 88.5419 183.511 88.5611 183.463C88.5803 183.416 88.6095 183.372 88.6468 183.337C88.7197 183.269 88.8166 183.231 88.9166 183.234H90.2008C90.2518 183.23 90.3031 183.236 90.3511 183.254C90.3992 183.272 90.4428 183.299 90.479 183.336C90.5152 183.372 90.543 183.415 90.5606 183.463C90.5782 183.511 90.5851 183.563 90.5808 183.614V186.244H92.5617C92.6129 186.24 92.6644 186.247 92.7127 186.264C92.761 186.282 92.8048 186.31 92.8411 186.346C92.8774 186.382 92.9054 186.426 92.923 186.475C92.9405 186.523 92.9473 186.574 92.9428 186.626V187.529C92.944 187.582 92.9342 187.635 92.914 187.684C92.8938 187.733 92.8637 187.778 92.8255 187.815C92.7906 187.851 92.7486 187.879 92.7022 187.898C92.6558 187.918 92.606 187.927 92.5558 187.926H90.5749V191.366C90.5499 191.725 90.6315 192.083 90.8095 192.396C90.9003 192.517 91.0208 192.613 91.1594 192.675C91.298 192.737 91.4501 192.762 91.6012 192.748H92.6942C92.7442 192.748 92.7937 192.757 92.8399 192.777C92.8861 192.796 92.928 192.824 92.9633 192.859C92.9986 192.895 93.0266 192.937 93.0456 192.983C93.0646 193.029 93.0743 193.079 93.0742 193.129V194.112C93.0764 194.211 93.0398 194.308 92.9721 194.381C92.9364 194.419 92.8932 194.448 92.8452 194.467C92.7973 194.486 92.7458 194.495 92.6942 194.493H91.41C91.0183 194.521 90.6251 194.467 90.2548 194.337C89.8846 194.206 89.5452 194 89.2578 193.733Z" fill="#00C0C9"/>
<path d="M97.3488 197.403C97.3182 197.374 97.2939 197.34 97.2773 197.302C97.2608 197.264 97.2524 197.223 97.2526 197.181C97.2514 197.093 97.2737 197.006 97.3171 196.929L98.5533 193.997L95.5098 186.817C95.4743 186.748 95.4524 186.673 95.4453 186.595C95.455 186.504 95.4941 186.418 95.5567 186.35C95.5863 186.317 95.6225 186.291 95.6629 186.273C95.7033 186.255 95.7471 186.246 95.7913 186.246H97.0755C97.1698 186.243 97.2623 186.272 97.3392 186.326C97.4161 186.381 97.4734 186.459 97.5024 186.548L99.6135 191.731L101.784 186.548C101.814 186.459 101.871 186.381 101.948 186.326C102.025 186.272 102.118 186.243 102.212 186.246H103.479C103.567 186.246 103.651 186.28 103.714 186.342C103.745 186.369 103.771 186.404 103.789 186.442C103.806 186.48 103.815 186.521 103.816 186.564C103.813 186.651 103.792 186.738 103.754 186.817L99.2675 197.199C99.2333 197.288 99.1724 197.365 99.0931 197.419C99.0139 197.473 98.92 197.501 98.8242 197.5H97.5728C97.5307 197.5 97.4891 197.492 97.4505 197.475C97.4119 197.458 97.3773 197.434 97.3488 197.403Z" fill="#00C0C9"/>
<path d="M111.675 194.377C111.639 194.342 111.61 194.3 111.591 194.254C111.572 194.207 111.562 194.157 111.564 194.107V186.626C111.563 186.576 111.573 186.526 111.592 186.48C111.611 186.433 111.639 186.391 111.674 186.356C111.709 186.32 111.751 186.292 111.798 186.273C111.844 186.254 111.894 186.244 111.944 186.244H113.18C113.23 186.244 113.279 186.254 113.326 186.273C113.372 186.292 113.414 186.32 113.449 186.356C113.484 186.391 113.512 186.433 113.531 186.48C113.55 186.526 113.56 186.576 113.56 186.626V187.164C113.827 186.812 114.176 186.53 114.576 186.342C114.977 186.155 115.417 186.067 115.858 186.087C116.362 186.047 116.866 186.16 117.305 186.411C117.743 186.662 118.095 187.04 118.315 187.495C118.577 187.064 118.949 186.711 119.393 186.473C119.853 186.215 120.372 186.082 120.899 186.085C121.296 186.072 121.691 186.145 122.058 186.298C122.424 186.451 122.754 186.681 123.023 186.973C123.616 187.697 123.91 188.62 123.844 189.553V194.101C123.846 194.201 123.81 194.298 123.742 194.371C123.706 194.408 123.663 194.438 123.615 194.457C123.567 194.476 123.516 194.485 123.464 194.482H122.165C122.115 194.483 122.065 194.473 122.019 194.454C121.973 194.435 121.931 194.407 121.895 194.372C121.86 194.336 121.832 194.294 121.813 194.248C121.794 194.202 121.784 194.152 121.785 194.102V189.681C121.83 189.162 121.681 188.644 121.365 188.23C121.222 188.079 121.048 187.961 120.855 187.883C120.662 187.805 120.455 187.769 120.247 187.779C120.049 187.776 119.852 187.815 119.67 187.895C119.488 187.974 119.325 188.091 119.192 188.238C118.867 188.646 118.711 189.162 118.755 189.681V194.102C118.755 194.152 118.746 194.202 118.727 194.248C118.707 194.294 118.679 194.336 118.644 194.372C118.608 194.407 118.566 194.435 118.52 194.454C118.474 194.473 118.424 194.483 118.374 194.482H117.076C117.026 194.483 116.976 194.473 116.93 194.454C116.884 194.435 116.842 194.407 116.806 194.371C116.771 194.336 116.743 194.294 116.724 194.248C116.705 194.202 116.695 194.152 116.695 194.102V189.681C116.741 189.159 116.585 188.64 116.26 188.23C116.118 188.082 115.947 187.965 115.757 187.887C115.567 187.81 115.363 187.773 115.158 187.779C114.957 187.775 114.758 187.814 114.573 187.893C114.389 187.973 114.223 188.09 114.087 188.238C113.764 188.646 113.608 189.162 113.652 189.681V194.102C113.653 194.152 113.643 194.202 113.624 194.248C113.605 194.294 113.576 194.336 113.541 194.372C113.506 194.407 113.463 194.435 113.417 194.454C113.371 194.473 113.321 194.483 113.271 194.482H111.941C111.892 194.484 111.843 194.475 111.797 194.457C111.752 194.439 111.71 194.411 111.675 194.377Z" fill="#00C0C9"/>
<path d="M128.358 194.321C127.934 194.125 127.568 193.822 127.297 193.441C126.976 192.981 126.847 192.415 126.937 191.862C127.028 191.308 127.33 190.812 127.781 190.479C128.492 189.984 129.314 189.673 130.175 189.576L132.346 189.258V188.925C132.36 188.736 132.336 188.546 132.275 188.366C132.215 188.187 132.119 188.021 131.994 187.88C131.68 187.618 131.276 187.491 130.869 187.528C130.573 187.515 130.28 187.584 130.021 187.727C129.835 187.836 129.662 187.966 129.506 188.115C129.379 188.253 129.295 188.343 129.253 188.385C129.242 188.439 129.213 188.488 129.17 188.523C129.127 188.558 129.073 188.576 129.018 188.575H127.797C127.706 188.577 127.618 188.543 127.551 188.48C127.516 188.448 127.489 188.408 127.471 188.364C127.454 188.32 127.446 188.273 127.448 188.226C127.486 187.893 127.621 187.579 127.836 187.323C128.14 186.941 128.535 186.642 128.984 186.451C129.584 186.191 130.233 186.067 130.887 186.086C131.87 185.999 132.848 186.301 133.612 186.926C133.899 187.214 134.123 187.559 134.271 187.938C134.418 188.317 134.485 188.722 134.468 189.129V194.105C134.47 194.205 134.433 194.302 134.365 194.375C134.33 194.412 134.287 194.441 134.239 194.46C134.191 194.48 134.14 194.488 134.088 194.486H132.804C132.754 194.486 132.705 194.477 132.658 194.457C132.612 194.438 132.57 194.41 132.535 194.375C132.5 194.34 132.472 194.298 132.453 194.252C132.434 194.205 132.424 194.156 132.424 194.106V193.488C132.17 193.845 131.829 194.131 131.433 194.32C130.935 194.551 130.39 194.663 129.84 194.646C129.328 194.651 128.821 194.54 128.358 194.321ZM131.806 192.57C132.203 192.11 132.402 191.511 132.36 190.904V190.572L130.775 190.826C130.285 190.878 129.812 191.035 129.388 191.285C129.249 191.364 129.133 191.476 129.051 191.612C128.969 191.748 128.923 191.903 128.919 192.062C128.914 192.22 128.951 192.376 129.026 192.515C129.101 192.654 129.211 192.771 129.345 192.855C129.652 193.051 130.011 193.15 130.375 193.14C130.64 193.15 130.904 193.104 131.151 193.006C131.397 192.908 131.62 192.759 131.806 192.57Z" fill="#00C0C9"/>
<path d="M138.685 193.616C138.08 192.831 137.756 191.865 137.765 190.874L137.75 190.351L137.765 189.843C137.753 188.862 138.074 187.907 138.677 187.134C138.979 186.781 139.358 186.504 139.786 186.322C140.213 186.141 140.676 186.06 141.139 186.087C141.599 186.067 142.057 186.151 142.479 186.332C142.902 186.513 143.278 186.787 143.58 187.134V183.615C143.578 183.564 143.587 183.512 143.606 183.465C143.625 183.417 143.654 183.374 143.691 183.338C143.764 183.27 143.861 183.233 143.961 183.235H145.309C145.36 183.231 145.411 183.238 145.459 183.255C145.507 183.273 145.551 183.301 145.587 183.337C145.623 183.373 145.651 183.417 145.669 183.465C145.686 183.513 145.693 183.564 145.689 183.615V194.108C145.691 194.208 145.654 194.305 145.586 194.378C145.55 194.415 145.507 194.445 145.459 194.464C145.412 194.483 145.36 194.492 145.309 194.489H144.056C144.006 194.49 143.957 194.48 143.911 194.461C143.864 194.442 143.823 194.414 143.787 194.378C143.752 194.343 143.724 194.301 143.705 194.255C143.686 194.209 143.676 194.159 143.676 194.109V193.523C143.372 193.896 142.983 194.193 142.543 194.388C142.102 194.584 141.622 194.673 141.141 194.648C140.68 194.676 140.218 194.597 139.792 194.418C139.367 194.239 138.988 193.965 138.685 193.616ZM143.095 192.363C143.4 191.943 143.572 191.44 143.586 190.921C143.597 190.794 143.602 190.588 143.601 190.302C143.6 190.017 143.595 189.817 143.586 189.701C143.577 189.205 143.401 188.728 143.086 188.345C142.919 188.154 142.709 188.004 142.474 187.906C142.24 187.808 141.986 187.766 141.732 187.782C140.59 187.782 139.983 188.486 139.909 189.893L139.894 190.368L139.909 190.844C139.983 192.252 140.591 192.955 141.732 192.955C141.99 192.974 142.249 192.93 142.486 192.827C142.723 192.724 142.932 192.565 143.095 192.363Z" fill="#00C0C9"/>
<path d="M150.136 193.622C149.405 192.846 149.01 191.813 149.035 190.747L149.02 190.35L149.035 189.953C149.027 188.899 149.427 187.883 150.151 187.117C150.521 186.766 150.959 186.494 151.437 186.317C151.915 186.14 152.424 186.062 152.933 186.087C153.469 186.055 154.006 186.14 154.506 186.337C155.005 186.534 155.456 186.839 155.825 187.228C156.538 188.077 156.904 189.165 156.848 190.272V190.605C156.849 190.655 156.839 190.705 156.82 190.751C156.801 190.798 156.773 190.84 156.737 190.875C156.699 190.912 156.655 190.941 156.606 190.96C156.557 190.979 156.504 190.988 156.452 190.986H151.189V191.113C151.192 191.64 151.361 192.153 151.672 192.579C151.816 192.772 152.004 192.927 152.221 193.03C152.438 193.134 152.677 193.183 152.917 193.173C153.208 193.181 153.497 193.119 153.759 192.992C154.021 192.865 154.248 192.677 154.423 192.444C154.487 192.356 154.566 192.281 154.657 192.222C154.739 192.185 154.829 192.169 154.919 192.174H156.282C156.371 192.172 156.458 192.203 156.527 192.261C156.559 192.286 156.585 192.319 156.603 192.356C156.621 192.393 156.63 192.433 156.63 192.474C156.589 192.817 156.429 193.134 156.178 193.37C155.816 193.757 155.377 194.062 154.888 194.265C154.273 194.53 153.608 194.659 152.939 194.645C152.427 194.672 151.915 194.595 151.433 194.42C150.952 194.244 150.51 193.973 150.136 193.622ZM154.692 189.652V189.604C154.719 189.063 154.553 188.529 154.223 188.099C154.067 187.91 153.87 187.76 153.646 187.661C153.422 187.561 153.178 187.516 152.933 187.527C152.689 187.515 152.446 187.561 152.223 187.66C152 187.759 151.803 187.909 151.649 188.099C151.325 188.532 151.163 189.064 151.189 189.604V189.652H154.692Z" fill="#00C0C9"/>
<path d="M166.079 193.623C165.349 192.846 164.953 191.813 164.978 190.747L164.963 190.35L164.978 189.953C164.971 188.899 165.372 187.883 166.096 187.117C166.466 186.766 166.903 186.494 167.381 186.317C167.859 186.14 168.369 186.062 168.878 186.087C169.414 186.055 169.951 186.14 170.45 186.337C170.95 186.534 171.4 186.838 171.77 187.228C172.483 188.077 172.849 189.165 172.793 190.272V190.605C172.793 190.655 172.784 190.705 172.765 190.751C172.746 190.798 172.717 190.84 172.681 190.875C172.644 190.912 172.599 190.941 172.55 190.96C172.501 190.979 172.449 190.988 172.396 190.986H167.135V191.113C167.138 191.64 167.306 192.153 167.617 192.579C167.76 192.772 167.949 192.927 168.165 193.03C168.382 193.134 168.621 193.183 168.861 193.173C169.152 193.181 169.441 193.119 169.703 192.992C169.965 192.865 170.193 192.677 170.367 192.444C170.432 192.357 170.511 192.282 170.602 192.222C170.684 192.185 170.774 192.169 170.863 192.174H172.226C172.316 192.172 172.404 192.203 172.472 192.261C172.505 192.286 172.531 192.319 172.549 192.356C172.567 192.393 172.576 192.433 172.576 192.474C172.535 192.816 172.376 193.134 172.125 193.37C171.763 193.756 171.324 194.061 170.835 194.265C170.22 194.53 169.555 194.659 168.886 194.645C168.373 194.673 167.861 194.596 167.378 194.42C166.896 194.245 166.454 193.973 166.079 193.623ZM170.636 189.653V189.604C170.662 189.063 170.496 188.53 170.167 188.099C170.011 187.91 169.813 187.76 169.589 187.661C169.365 187.562 169.121 187.516 168.877 187.527C168.633 187.515 168.39 187.561 168.166 187.66C167.943 187.759 167.747 187.909 167.592 188.099C167.269 188.532 167.107 189.065 167.134 189.604V189.653H170.636Z" fill="#00C0C9"/>
<path d="M176.97 194.321C176.545 194.125 176.179 193.822 175.907 193.441C175.587 192.981 175.458 192.415 175.548 191.862C175.639 191.308 175.941 190.812 176.392 190.479C177.102 189.984 177.925 189.673 178.785 189.576L180.958 189.258V188.925C180.972 188.736 180.948 188.546 180.887 188.366C180.827 188.187 180.731 188.021 180.606 187.88C180.292 187.618 179.888 187.491 179.481 187.528C179.185 187.515 178.892 187.584 178.633 187.727C178.447 187.836 178.274 187.966 178.118 188.115C177.991 188.253 177.907 188.343 177.865 188.385C177.854 188.439 177.825 188.488 177.782 188.523C177.739 188.558 177.685 188.576 177.63 188.575H176.409C176.318 188.576 176.231 188.542 176.164 188.48C176.13 188.448 176.102 188.408 176.085 188.364C176.067 188.32 176.059 188.273 176.061 188.226C176.1 187.893 176.235 187.579 176.449 187.323C176.753 186.941 177.148 186.642 177.597 186.451C178.197 186.191 178.846 186.067 179.5 186.086C180.483 185.999 181.461 186.301 182.225 186.926C182.512 187.214 182.736 187.559 182.884 187.938C183.031 188.317 183.098 188.722 183.081 189.129V194.105C183.084 194.205 183.047 194.302 182.978 194.375C182.943 194.412 182.9 194.441 182.852 194.46C182.804 194.48 182.753 194.488 182.701 194.486H181.417C181.367 194.486 181.318 194.477 181.272 194.457C181.225 194.438 181.184 194.41 181.148 194.375C181.113 194.34 181.085 194.298 181.066 194.252C181.047 194.205 181.037 194.156 181.037 194.106V193.488C180.783 193.845 180.442 194.131 180.046 194.32C179.548 194.551 179.003 194.663 178.454 194.646C177.941 194.652 177.433 194.541 176.97 194.321ZM180.417 192.57C180.814 192.11 181.013 191.511 180.97 190.904V190.572L179.386 190.826C178.896 190.878 178.423 191.035 177.998 191.285C177.86 191.364 177.744 191.476 177.662 191.612C177.58 191.748 177.534 191.903 177.529 192.062C177.525 192.22 177.562 192.376 177.637 192.516C177.712 192.655 177.823 192.772 177.957 192.855C178.264 193.051 178.623 193.15 178.987 193.14C179.252 193.15 179.516 193.104 179.762 193.006C180.008 192.908 180.231 192.759 180.417 192.57Z" fill="#00C0C9"/>
<path d="M187.819 194.29C187.359 194.109 186.949 193.821 186.622 193.45C186.405 193.223 186.269 192.931 186.234 192.619C186.232 192.571 186.241 192.523 186.261 192.479C186.28 192.435 186.309 192.396 186.346 192.365C186.415 192.303 186.506 192.269 186.599 192.27H187.851C187.896 192.27 187.941 192.28 187.981 192.299C188.022 192.319 188.058 192.347 188.086 192.382C188.127 192.412 188.24 192.508 188.419 192.667C188.603 192.839 188.818 192.973 189.054 193.063C189.312 193.161 189.586 193.21 189.862 193.206C190.227 193.221 190.589 193.133 190.908 192.953C191.011 192.893 191.101 192.812 191.17 192.714C191.239 192.617 191.287 192.506 191.309 192.388C191.331 192.271 191.328 192.15 191.299 192.034C191.27 191.918 191.217 191.809 191.142 191.716C190.956 191.541 190.73 191.413 190.484 191.344C190.023 191.197 189.553 191.08 189.077 190.992C188.348 190.88 187.66 190.58 187.083 190.121C186.87 189.923 186.702 189.683 186.592 189.414C186.481 189.146 186.43 188.857 186.442 188.567C186.443 188.138 186.576 187.721 186.822 187.37C187.109 186.967 187.501 186.649 187.955 186.451C188.521 186.201 189.135 186.081 189.754 186.099C190.384 186.084 191.01 186.2 191.593 186.44C192.041 186.619 192.444 186.895 192.774 187.247C193.002 187.469 193.145 187.764 193.178 188.08C193.178 188.126 193.169 188.172 193.152 188.215C193.134 188.257 193.108 188.296 193.075 188.329C193.043 188.361 193.004 188.387 192.961 188.405C192.918 188.423 192.873 188.432 192.826 188.432H191.654C191.554 188.426 191.459 188.387 191.384 188.32C191.261 188.227 191.144 188.126 191.032 188.019C190.871 187.868 190.682 187.749 190.477 187.667C190.239 187.577 189.987 187.534 189.733 187.539C189.409 187.52 189.088 187.609 188.821 187.794C188.718 187.87 188.634 187.971 188.578 188.087C188.521 188.202 188.493 188.33 188.496 188.459C188.488 188.637 188.545 188.811 188.655 188.951C188.829 189.121 189.041 189.246 189.273 189.316C189.722 189.47 190.184 189.588 190.652 189.668C191.451 189.773 192.206 190.097 192.831 190.606C193.043 190.804 193.212 191.045 193.325 191.313C193.438 191.58 193.494 191.868 193.489 192.159C193.492 192.517 193.406 192.87 193.237 193.186C193.068 193.502 192.822 193.77 192.523 193.966C191.714 194.476 190.767 194.72 189.812 194.664C189.129 194.678 188.45 194.551 187.819 194.29Z" fill="#00C0C9"/>
<path d="M197.661 197.403C197.63 197.375 197.606 197.34 197.589 197.302C197.573 197.264 197.564 197.223 197.565 197.181C197.563 197.093 197.585 197.006 197.628 196.929L198.865 193.997L195.822 186.817C195.786 186.748 195.764 186.673 195.757 186.595C195.767 186.504 195.806 186.418 195.869 186.35C195.898 186.317 195.934 186.291 195.975 186.273C196.015 186.255 196.059 186.246 196.103 186.246H197.388C197.482 186.243 197.574 186.272 197.651 186.326C197.728 186.381 197.785 186.459 197.814 186.548L199.925 191.731L202.096 186.548C202.125 186.458 202.183 186.38 202.26 186.326C202.337 186.271 202.43 186.243 202.524 186.246H203.791C203.879 186.246 203.963 186.28 204.026 186.342C204.057 186.369 204.083 186.404 204.101 186.442C204.118 186.48 204.127 186.522 204.128 186.564C204.125 186.651 204.104 186.738 204.066 186.817L199.579 197.199C199.545 197.288 199.484 197.365 199.405 197.419C199.326 197.473 199.232 197.501 199.136 197.5H197.885C197.843 197.5 197.801 197.492 197.763 197.475C197.724 197.458 197.689 197.434 197.661 197.403Z" fill="#00C0C9"/>
</svg>
